<svg xmlns="http://www.w3.org/2000/svg" xmlns:xlink="http://www.w3.org/1999/xlink" xmlns:lucid="lucid" width="3076.31" height="2377.68"><g transform="translate(2636.3086419753085 -40)" lucid:page-tab-id="OaxBsV93FAZA"><path d="M-3613.73 0h5484.6v2581.67h-5484.6z" fill="#fff"/><path d="M388 80c17.67 0 32 17.9 32 40s-14.33 40-32 40h-96c-17.67 0-32-17.9-32-40s14.33-40 32-40z" stroke="#5e5e5e" stroke-width="3" fill="#fff"/><use xlink:href="#a" transform="matrix(1,0,0,1,265,85) translate(53.425925925925924 39.65277777777778)"/><path d="M261.55 205.8c-.86-3.2 1.14-5.8 4.45-5.8h148c3.3 0 5.3 2.6 4.45 5.8l-28.9 108.4c-.86 3.2-4.24 5.8-7.55 5.8h-84c-3.3 0-6.7-2.6-7.55-5.8z" stroke="#5e5e5e" stroke-width="3" fill="#fff"/><use xlink:href="#b" transform="matrix(1,0,0,1,265,205) translate(20.15932098765432 45.27777777777778)"/><use xlink:href="#c" transform="matrix(1,0,0,1,265,205) translate(87.99882716049383 45.27777777777778)"/><use xlink:href="#d" transform="matrix(1,0,0,1,265,205) translate(44.758086419753084 71.94444444444446)"/><path d="M340 162.5V180" stroke="#5e5e5e" stroke-width="2" fill="none"/><path d="M341 162.53h-2v-1.03h2z" fill="#5e5e5e"/><path d="M340 195.26L335.36 181h9.28z" stroke="#5e5e5e" stroke-width="2" fill="#5e5e5e"/><path d="M-162 60c17.67 0 32 17.9 32 40s-14.33 40-32 40h-96c-17.67 0-32-17.9-32-40s14.33-40 32-40z" stroke="#5e5e5e" stroke-width="3" fill="#fff"/><use xlink:href="#e" transform="matrix(1,0,0,1,-285,65) translate(17.098765432098766 39.65277777777778)"/><use xlink:href="#f" transform="matrix(1,0,0,1,-285,65) translate(66.41975308641975 39.65277777777778)"/><path d="M-210 142.5V180" stroke="#5e5e5e" stroke-width="2" fill="none"/><path d="M-209 142.53h-2v-1.03h2z" fill="#5e5e5e"/><path d="M-210 195.26l-4.64-14.26h9.28z" stroke="#5e5e5e" stroke-width="2" fill="#5e5e5e"/><path d="M260 526c0-3.3 2.7-6 6-6h148c3.3 0 6 2.7 6 6v108c0 3.3-2.7 6-6 6H266c-3.3 0-6-2.7-6-6z" stroke="#5e5e5e" stroke-width="3" fill="#fff"/><use xlink:href="#e" transform="matrix(1,0,0,1,272,532) translate(37.16666666666667 38.77777777777778)"/><use xlink:href="#g" transform="matrix(1,0,0,1,272,532) translate(86.48765432098766 38.77777777777778)"/><use xlink:href="#h" transform="matrix(1,0,0,1,272,532) translate(29.203703703703702 65.44444444444446)"/><path d="M340 322.5V340" stroke="#5e5e5e" stroke-width="2" fill="none"/><path d="M341 322.53h-2v-1.03h2z" fill="#5e5e5e"/><path d="M340 355.26L335.37 341h9.27z" stroke="#5e5e5e" stroke-width="2" fill="#5e5e5e"/><path d="M-1452 80c17.67 0 32 17.9 32 40s-14.33 40-32 40h-96c-17.67 0-32-17.9-32-40s14.33-40 32-40z" stroke="#5e5e5e" stroke-width="3" fill="#fff"/><use xlink:href="#e" transform="matrix(1,0,0,1,-1574.9999959017605,85) translate(23.858024691358025 39.65277777777778)"/><use xlink:href="#i" transform="matrix(1,0,0,1,-1574.9999959017605,85) translate(73.17901234567901 39.65277777777778)"/><path d="M260 696c0-3.3 2.7-6 6-6h148c3.3 0 6 2.7 6 6v108c0 3.3-2.7 6-6 6H266c-3.3 0-6-2.7-6-6z" stroke="#5e5e5e" stroke-width="3" fill="#fff"/><use xlink:href="#e" transform="matrix(1,0,0,1,272,702) translate(16.858024691358025 53.77777777777778)"/><use xlink:href="#i" transform="matrix(1,0,0,1,272,702) translate(66.17901234567901 53.77777777777778)"/><path d="M340 642.5V670" stroke="#5e5e5e" stroke-width="2" fill="none"/><path d="M341 642.53h-2v-1.03h2z" fill="#5e5e5e"/><path d="M340 685.26L335.36 671h9.28z" stroke="#5e5e5e" stroke-width="2" fill="#5e5e5e"/><path d="M-214.74 303.68c2.62-2.03 6.86-2.03 9.48 0l80.52 62.64c2.62 2.03 2.62 5.33 0 7.36l-80.52 62.64c-2.62 2.03-6.86 2.03-9.48 0l-80.52-62.64c-2.62-2.03-2.62-5.33 0-7.36z" stroke="#5e5e5e" stroke-width="3" fill="#fff"/><use xlink:href="#j" transform="matrix(1,0,0,1,-294.9999959017602,305) translate(48.86302469135803 42.15277777777778)"/><use xlink:href="#k" transform="matrix(1,0,0,1,-294.9999959017602,305) translate(19.017345679012344 68.81944444444446)"/><use xlink:href="#l" transform="matrix(1,0,0,1,-294.9999959017602,305) translate(107.84450617283952 68.81944444444446)"/><use xlink:href="#m" transform="matrix(1,0,0,1,-294.9999959017602,305) translate(78.83216049382716 95.48611111111111)"/><path d="M-214.74 602.25c2.62-2.03 6.86-2.03 9.48 0l80.52 62.63c2.62 2.04 2.62 5.34 0 7.37l-80.52 62.63c-2.62 2.04-6.86 2.04-9.48 0l-80.52-62.63c-2.62-2.03-2.62-5.33 0-7.37z" stroke="#5e5e5e" stroke-width="3" fill="#fff"/><use xlink:href="#n" transform="matrix(1,0,0,1,-294.9999959017602,603.5675189535547) translate(46.14697530864198 42.15277777777778)"/><use xlink:href="#k" transform="matrix(1,0,0,1,-294.9999959017602,603.5675189535547) translate(19.017345679012344 68.81944444444446)"/><use xlink:href="#l" transform="matrix(1,0,0,1,-294.9999959017602,603.5675189535547) translate(107.84450617283952 68.81944444444446)"/><use xlink:href="#m" transform="matrix(1,0,0,1,-294.9999959017602,603.5675189535547) translate(78.83216049382716 95.48611111111111)"/><path d="M-214.64 899.78c2.56-2.1 6.72-2.1 9.28 0l100.72 82.4c2.56 2.1 2.56 5.5 0 7.6l-100.72 82.4c-2.56 2.1-6.72 2.1-9.28 0l-100.72-82.4c-2.56-2.1-2.56-5.5 0-7.6z" stroke="#5e5e5e" stroke-width="3" fill="#fff"/><use xlink:href="#o" transform="matrix(1,0,0,1,-314.9999959017602,900.984673817154) translate(85.31364197530864 33.71527777777778)"/><use xlink:href="#p" transform="matrix(1,0,0,1,-314.9999959017602,900.984673817154) translate(63.67783950617284 60.38194444444445)"/><use xlink:href="#q" transform="matrix(1,0,0,1,-314.9999959017602,900.984673817154) translate(34.17166666666666 87.04861111111111)"/><use xlink:href="#r" transform="matrix(1,0,0,1,-314.9999959017602,900.984673817154) translate(83.49265432098765 87.04861111111111)"/><use xlink:href="#s" transform="matrix(1,0,0,1,-314.9999959017602,900.984673817154) translate(102.01117283950617 87.04861111111111)"/><use xlink:href="#t" transform="matrix(1,0,0,1,-314.9999959017602,900.984673817154) translate(147.56672839506174 87.04861111111111)"/><use xlink:href="#u" transform="matrix(1,0,0,1,-314.9999959017602,900.984673817154) translate(43.98648148148148 113.7152777777778)"/><use xlink:href="#q" transform="matrix(1,0,0,1,-314.9999959017602,900.984673817154) translate(92.01117283950617 113.7152777777778)"/><use xlink:href="#v" transform="matrix(1,0,0,1,-314.9999959017602,900.984673817154) translate(141.33216049382713 113.7152777777778)"/><use xlink:href="#w" transform="matrix(1,0,0,1,-314.9999959017602,900.984673817154) translate(87.1654938271605 140.38194444444446)"/><path d="M-214.64 1243.8c2.56-2.1 6.72-2.1 9.28 0l100.72 82.4c2.56 2.1 2.56 5.5 0 7.6l-100.72 82.4c-2.56 2.1-6.72 2.1-9.28 0l-100.72-82.4c-2.56-2.1-2.56-5.5 0-7.6z" stroke="#5e5e5e" stroke-width="3" fill="#fff"/><use xlink:href="#x" transform="matrix(1,0,0,1,-314.99999590176026,1245) translate(84.63462962962963 33.71527777777778)"/><use xlink:href="#p" transform="matrix(1,0,0,1,-314.99999590176026,1245) translate(63.67783950617284 60.38194444444445)"/><use xlink:href="#q" transform="matrix(1,0,0,1,-314.99999590176026,1245) translate(34.17166666666666 87.04861111111111)"/><use xlink:href="#r" transform="matrix(1,0,0,1,-314.99999590176026,1245) translate(83.49265432098765 87.04861111111111)"/><use xlink:href="#s" transform="matrix(1,0,0,1,-314.99999590176026,1245) translate(102.01117283950617 87.04861111111111)"/><use xlink:href="#t" transform="matrix(1,0,0,1,-314.99999590176026,1245) translate(147.56672839506174 87.04861111111111)"/><use xlink:href="#u" transform="matrix(1,0,0,1,-314.99999590176026,1245) translate(43.98648148148148 113.7152777777778)"/><use xlink:href="#q" transform="matrix(1,0,0,1,-314.99999590176026,1245) translate(92.01117283950617 113.7152777777778)"/><use xlink:href="#v" transform="matrix(1,0,0,1,-314.99999590176026,1245) translate(141.33216049382713 113.7152777777778)"/><use xlink:href="#w" transform="matrix(1,0,0,1,-314.99999590176026,1245) translate(87.1654938271605 140.38194444444446)"/><path d="M-214.85 1583.53c2.68-1.95 7.02-1.95 9.7 0l100.3 72.94c2.68 1.95 2.68 5.1 0 7.06l-100.3 72.94c-2.68 1.95-7.02 1.95-9.7 0l-100.3-72.94c-2.68-1.95-2.68-5.1 0-7.06z" stroke="#5e5e5e" stroke-width="3" fill="#fff"/><use xlink:href="#y" transform="matrix(1,0,0,1,-314.99999590176026,1585) translate(71.7333950617284 59.96527777777778)"/><use xlink:href="#k" transform="matrix(1,0,0,1,-314.99999590176026,1585) translate(24.085246913580246 86.63194444444446)"/><use xlink:href="#q" transform="matrix(1,0,0,1,-314.99999590176026,1585) translate(112.91240740740741 86.63194444444446)"/><use xlink:href="#z" transform="matrix(1,0,0,1,-314.99999590176026,1585) translate(162.2333950617284 86.63194444444446)"/><path d="M-926.62 1962.67c-1.84-2.76-.65-5 2.67-5h148c3.3 0 4.5 2.24 2.67 5l-73.34 110c-1.84 2.77-4.82 2.77-6.66 0z" stroke="#5e5e5e" stroke-width="3" fill="#fff"/><use xlink:href="#A" transform="matrix(1,0,0,1,-924.9531650386111,1962.6757448543315) translate(43.58524691358025 59.02777777777778)"/><path d="M-854.8 2141.28c2.65-2 6.95-2 9.6 0l70.4 52.8c2.65 1.98 2.65 5.2 0 7.2l-70.4 52.8c-2.65 1.98-6.95 1.98-9.6 0l-70.4-52.8c-2.65-2-2.65-5.22 0-7.2z" stroke="#5e5e5e" stroke-width="3" fill="#fff"/><use xlink:href="#B" transform="matrix(1,0,0,1,-925,2142.6757448543312) translate(42.31981481481481 45.27777777777778)"/><use xlink:href="#C" transform="matrix(1,0,0,1,-925,2142.6757448543312) translate(59.54203703703703 45.27777777777778)"/><use xlink:href="#D" transform="matrix(1,0,0,1,-925,2142.6757448543312) translate(47.875370370370376 71.94444444444446)"/><path d="M-850 2077.1v42.74" stroke="#5e5e5e" stroke-width="2" fill="none"/><path d="M-849 2077.12h-2v-.9l2-.23z" fill="#5e5e5e"/><path d="M-850 2135.1l-4.64-14.26h9.28z" stroke="#5e5e5e" stroke-width="2" fill="#5e5e5e"/><path d="M-228.5 163.32h-905.37l-2.64.72-1.8 1.77-.7 2.66v2023.08l.7 2.65 1.8 1.76 2.63.72h40.4v2h-40.66l-3.42-.93-2.53-2.53-.92-3.4V168.18l.92-3.42 2.53-2.53 3.42-.93h905.63zm-701.1 2033.36v2h-133.25v-2z" fill="#5e5e5e"/><path d="M-928.72 2197.07l.28 1.6h-1.2v-2h1.1zM-213.24 162.32l-14.26 4.64v-9.27z" fill="#5e5e5e"/><path d="M-210 162.32l-18.5 6.02V156.3zm-16.5 3.26l10.03-3.26-10.03-3.25z" fill="#5e5e5e"/><use xlink:href="#E" transform="matrix(1,0,0,1,-1093.4691460606166,2187.0090781876647) translate(0 14.222222222222223)"/><path d="M-500 316c0-3.3 2.7-6 6-6h54c33.14 0 60 26.86 60 60s-26.86 60-60 60h-54c-3.3 0-6-2.7-6-6z" stroke="#5e5e5e" stroke-width="3" fill="#fff"/><use xlink:href="#F" transform="matrix(1,0,0,1,-494.99999590176026,315) translate(20.66666666666667 31.52777777777778)"/><use xlink:href="#G" transform="matrix(1,0,0,1,-494.99999590176026,315) translate(24.814814814814813 58.19444444444445)"/><use xlink:href="#H" transform="matrix(1,0,0,1,-494.99999590176026,315) translate(79.01234567901234 58.19444444444445)"/><use xlink:href="#d" transform="matrix(1,0,0,1,-494.99999590176026,315) translate(20.25308641975309 84.86111111111111)"/><path d="M-500 629.57c0-3.32 2.7-6 6-6h54c33.14 0 60 26.86 60 60 0 33.13-26.86 60-60 60h-54c-3.3 0-6-2.7-6-6z" stroke="#5e5e5e" stroke-width="3" fill="#fff"/><use xlink:href="#F" transform="matrix(1,0,0,1,-494.9999959017603,628.5675189535547) translate(20.66666666666667 31.52777777777778)"/><use xlink:href="#I" transform="matrix(1,0,0,1,-494.9999959017603,628.5675189535547) translate(24.814814814814813 58.19444444444445)"/><use xlink:href="#H" transform="matrix(1,0,0,1,-494.9999959017603,628.5675189535547) translate(79.01234567901234 58.19444444444445)"/><use xlink:href="#d" transform="matrix(1,0,0,1,-494.9999959017603,628.5675189535547) translate(20.25308641975309 84.86111111111111)"/><path d="M-500 931.98c0-3.3 2.7-6 6-6h54c33.14 0 60 26.87 60 60 0 33.14-26.86 60-60 60h-54c-3.3 0-6-2.68-6-6z" stroke="#5e5e5e" stroke-width="3" fill="#fff"/><use xlink:href="#F" transform="matrix(1,0,0,1,-494.9999959017603,930.984673817154) translate(20.66666666666667 31.52777777777778)"/><use xlink:href="#J" transform="matrix(1,0,0,1,-494.9999959017603,930.984673817154) translate(24.814814814814813 58.19444444444445)"/><use xlink:href="#H" transform="matrix(1,0,0,1,-494.9999959017603,930.984673817154) translate(79.01234567901234 58.19444444444445)"/><use xlink:href="#d" transform="matrix(1,0,0,1,-494.9999959017603,930.984673817154) translate(20.25308641975309 84.86111111111111)"/><path d="M-520 1606c0-3.3 2.7-6 6-6h54c33.14 0 60 26.86 60 60s-26.86 60-60 60h-54c-3.3 0-6-2.7-6-6z" stroke="#5e5e5e" stroke-width="3" fill="#fff"/><use xlink:href="#F" transform="matrix(1,0,0,1,-514.9999959017603,1605) translate(20.66666666666667 31.52777777777778)"/><use xlink:href="#K" transform="matrix(1,0,0,1,-514.9999959017603,1605) translate(15.555555555555557 58.19444444444445)"/><use xlink:href="#L" transform="matrix(1,0,0,1,-514.9999959017603,1605) translate(46.41975308641975 58.19444444444445)"/><use xlink:href="#H" transform="matrix(1,0,0,1,-514.9999959017603,1605) translate(88.27160493827161 58.19444444444445)"/><use xlink:href="#d" transform="matrix(1,0,0,1,-514.9999959017603,1605) translate(20.25308641975309 84.86111111111111)"/><path d="M-500 1276c0-3.3 2.7-6 6-6h54c33.14 0 60 26.86 60 60s-26.86 60-60 60h-54c-3.3 0-6-2.7-6-6z" stroke="#5e5e5e" stroke-width="3" fill="#fff"/><use xlink:href="#F" transform="matrix(1,0,0,1,-494.9999959017603,1275) translate(20.66666666666667 31.52777777777778)"/><use xlink:href="#J" transform="matrix(1,0,0,1,-494.9999959017603,1275) translate(24.814814814814813 58.19444444444445)"/><use xlink:href="#H" transform="matrix(1,0,0,1,-494.9999959017603,1275) translate(79.01234567901234 58.19444444444445)"/><use xlink:href="#d" transform="matrix(1,0,0,1,-494.9999959017603,1275) translate(20.25308641975309 84.86111111111111)"/><path d="M-353.9 371h-6.1v-2h6.1zm54.23 0h-23.6v-2h23.6z" fill="#5e5e5e"/><path d="M-298.76 369.53l.27 1.47h-1.2v-2h1.13zM-361 374.64l-14.26-4.64 14.26-4.64z" fill="#5e5e5e"/><path d="M-360 376l-18.5-6 18.5-6zm-12.03-6l10.03 3.26v-6.52z" fill="#5e5e5e"/><use xlink:href="#E" transform="matrix(1,0,0,1,-353.8947444622442,359.3333333333333) translate(0 14.222222222222223)"/><path d="M-209 580.8h-2v-50.85h2zm0-72.18h-2v-68.34h2z" fill="#5e5e5e"/><path d="M-209.06 439.3l.06 1h-2v-1.05zM-210 596.05l-4.64-14.26h9.28z" fill="#5e5e5e"/><path d="M-210 599.3l-6-18.5h12zm-3.26-16.5l3.26 10.02 3.26-10.03z" fill="#5e5e5e"/><use xlink:href="#M" transform="matrix(1,0,0,1,-221.80246503756268,508.6170928101107) translate(0 14.222222222222223)"/><path d="M-354.67 670.94h-6.87v-2h6.87zm55-1.37h-24.38v-2h24.38z" fill="#5e5e5e"/><path d="M-298.76 668.1l.27 1.47h-1.2v-2h1.13zM-362.54 674.58l-14.27-4.64 14.26-4.64z" fill="#5e5e5e"/><path d="M-361.54 675.95l-18.5-6 18.5-6.02zm-12.03-6l10.03 3.25v-6.52z" fill="#5e5e5e"/><use xlink:href="#E" transform="matrix(1,0,0,1,-354.6681562670508,658.5872219329195) translate(0 14.222222222222223)"/><path d="M-209 878.27h-2v-50.3h2zm0-71.63h-2v-67.8h2z" fill="#5e5e5e"/><path d="M-209.06 737.88l.06 1h-2v-1.07zM-210 893.54l-4.64-14.27h9.28z" fill="#5e5e5e"/><path d="M-210 896.77l-6-18.5h12zm-3.26-16.5l3.26 10.03 3.26-10.03z" fill="#5e5e5e"/><use xlink:href="#M" transform="matrix(1,0,0,1,-221.80246503756268,806.6431307062086) translate(0 14.222222222222223)"/><path d="M-319.76 986.98h-13.56v-2h13.56z" fill="#5e5e5e"/><path d="M-318.82 985.7l.26 1.28h-1.23v-2h1.2zM-363.94 989.66l-11.32-3.68 11.32-3.67z" fill="#5e5e5e"/><path d="M-363.94 983.36l-8.1 2.62 8.1 2.63v2.12l-14.56-4.74 14.56-4.73z" fill="#5e5e5e"/><use xlink:href="#E" transform="matrix(1,0,0,1,-363.938425245601,975.3180071504873) translate(0 14.222222222222223)"/><path d="M-209 1222.3h-2v-53.64h2zm0-74.97h-2v-71.13h2z" fill="#5e5e5e"/><path d="M-209.17 1075.24l.17-.04v1.02h-2v-1.07zM-210 1237.55l-4.64-14.26h9.28z" fill="#5e5e5e"/><path d="M-210 1240.8l-6-18.5h12zm-3.26-16.5l3.26 10.02 3.26-10.03z" fill="#5e5e5e"/><use xlink:href="#M" transform="matrix(1,0,0,1,-221.80246503756268,1147.3256702419103) translate(0 14.222222222222223)"/><path d="M-319.76 1331h-13.56v-2h13.56z" fill="#5e5e5e"/><path d="M-318.82 1329.7l.26 1.3h-1.23v-2h1.2zM-363.94 1333.68l-11.32-3.68 11.32-3.68z" fill="#5e5e5e"/><path d="M-363.94 1327.37l-8.1 2.63 8.1 2.63v2.1l-14.56-4.73 14.56-4.73z" fill="#5e5e5e"/><use xlink:href="#E" transform="matrix(1,0,0,1,-363.938425245601,1319.3333333333333) translate(0 14.222222222222223)"/><path d="M-209 1562.13h-2v-51.54h2zm0-72.88h-2v-69.04h2z" fill="#5e5e5e"/><path d="M-209.17 1419.25l.17-.04v1.04h-2v-1.08zM-210 1577.4l-4.64-14.27h9.28z" fill="#5e5e5e"/><path d="M-210 1580.63l-6-18.5h12zm-3.26-16.5l3.26 10.03 3.26-10.03z" fill="#5e5e5e"/><use xlink:href="#M" transform="matrix(1,0,0,1,-221.80246503756274,1489.2533518406817) translate(0 14.222222222222223)"/><path d="M-373.84 1661H-380v-2h6.16zm54.28 0h-23.66v-2h23.66z" fill="#5e5e5e"/><path d="M-318.67 1659.28l.27 1.72h-1.18v-2h1.03zM-381 1664.64l-14.26-4.64 14.26-4.64z" fill="#5e5e5e"/><path d="M-380 1666l-18.5-6 18.5-6zm-12.03-6l10.03 3.26v-6.52z" fill="#5e5e5e"/><use xlink:href="#E" transform="matrix(1,0,0,1,-373.8378382984455,1649.3333333333333) translate(0 14.222222222222223)"/><path d="M-385.64 1995.2H-774v-2h388.36zm176.64-6.86l-.92 3.42-2.53 2.53-3.42.9h-146.16v-2h145.9l2.64-.7 1.8-1.78.7-2.64v-247.7h2z" fill="#5e5e5e"/><path d="M-209 1739.4v1h-2v-1.04zM-775 1998.84l-14.27-4.63 14.27-4.63z" fill="#5e5e5e"/><path d="M-774 2000.22l-18.5-6 18.5-6.02zm-12.03-6l10.03 3.25v-6.52z" fill="#5e5e5e"/><use xlink:href="#M" transform="matrix(1,0,0,1,-385.6370956789501,1983.54187045545) translate(0 14.222222222222223)"/><path d="M-700 1726c0-3.3 2.7-6 6-6h148c3.3 0 6 2.7 6 6v108c0 3.3-2.7 6-6 6h-148c-3.3 0-6-2.7-6-6z" stroke="#5e5e5e" stroke-width="3" fill="#fff"/><use xlink:href="#N" transform="matrix(1,0,0,1,-687.9999959017603,1732) translate(16.888888888888886 26.77777777777778)"/><use xlink:href="#O" transform="matrix(1,0,0,1,-687.9999959017603,1732) translate(97.01234567901234 26.77777777777778)"/><use xlink:href="#P" transform="matrix(1,0,0,1,-687.9999959017603,1732) translate(12.506172839506178 53.44444444444445)"/><use xlink:href="#Q" transform="matrix(1,0,0,1,-687.9999959017603,1732) translate(79.17283950617283 53.44444444444445)"/><use xlink:href="#R" transform="matrix(1,0,0,1,-687.9999959017603,1732) translate(16.209876543209873 80.11111111111111)"/><use xlink:href="#S" transform="matrix(1,0,0,1,-687.9999959017603,1732) translate(53.24691358024691 80.11111111111111)"/><path d="M-522.5 1660H-614c-3.3 0-6 2.7-6 6v34" stroke="#5e5e5e" stroke-width="2" fill="none"/><path d="M-521.5 1661h-1.03v-2h1.03z" fill="#5e5e5e"/><path d="M-620 1715.26l-4.64-14.26h9.28z" stroke="#5e5e5e" stroke-width="2" fill="#5e5e5e"/><path d="M-700 1386c0-3.3 2.7-6 6-6h148c3.3 0 6 2.7 6 6v108c0 3.3-2.7 6-6 6h-148c-3.3 0-6-2.7-6-6z" stroke="#5e5e5e" stroke-width="3" fill="#fff"/><use xlink:href="#T" transform="matrix(1,0,0,1,-687.9999959017603,1392) translate(31.02469135802469 26.77777777777778)"/><use xlink:href="#U" transform="matrix(1,0,0,1,-687.9999959017603,1392) translate(10.623456790123456 53.44444444444445)"/><use xlink:href="#V" transform="matrix(1,0,0,1,-687.9999959017603,1392) translate(75.99382716049382 53.44444444444445)"/><use xlink:href="#W" transform="matrix(1,0,0,1,-687.9999959017603,1392) translate(3.864197530864203 80.11111111111111)"/><use xlink:href="#R" transform="matrix(1,0,0,1,-687.9999959017603,1392) translate(54.35802469135803 80.11111111111111)"/><use xlink:href="#X" transform="matrix(1,0,0,1,-687.9999959017603,1392) translate(91.39506172839506 80.11111111111111)"/><path d="M-502.5 1330H-614c-3.3 0-6 2.7-6 6v24" stroke="#5e5e5e" stroke-width="2" fill="none"/><path d="M-501.5 1331h-1.03v-2h1.03z" fill="#5e5e5e"/><path d="M-620 1375.26l-4.64-14.26h9.28z" stroke="#5e5e5e" stroke-width="2" fill="#5e5e5e"/><path d="M-700 1051.98c0-3.3 2.7-6 6-6h148c3.3 0 6 2.7 6 6v108c0 3.32-2.7 6-6 6h-148c-3.3 0-6-2.68-6-6z" stroke="#5e5e5e" stroke-width="3" fill="#fff"/><use xlink:href="#T" transform="matrix(1,0,0,1,-687.9999959017603,1057.984673817154) translate(31.02469135802469 26.77777777777778)"/><use xlink:href="#U" transform="matrix(1,0,0,1,-687.9999959017603,1057.984673817154) translate(10.623456790123456 53.44444444444445)"/><use xlink:href="#V" transform="matrix(1,0,0,1,-687.9999959017603,1057.984673817154) translate(75.99382716049382 53.44444444444445)"/><use xlink:href="#W" transform="matrix(1,0,0,1,-687.9999959017603,1057.984673817154) translate(4.543209876543216 80.11111111111111)"/><use xlink:href="#R" transform="matrix(1,0,0,1,-687.9999959017603,1057.984673817154) translate(55.037037037037045 80.11111111111111)"/><use xlink:href="#Y" transform="matrix(1,0,0,1,-687.9999959017603,1057.984673817154) translate(92.07407407407408 80.11111111111111)"/><path d="M-720 744.57c0-3.32 2.7-6 6-6h148c3.3 0 6 2.68 6 6v108c0 3.3-2.7 6-6 6h-148c-3.3 0-6-2.7-6-6z" stroke="#5e5e5e" stroke-width="3" fill="#fff"/><use xlink:href="#N" transform="matrix(1,0,0,1,-707.9999959017603,750.5675189535548) translate(21.76543209876543 26.77777777777778)"/><use xlink:href="#Z" transform="matrix(1,0,0,1,-707.9999959017603,750.5675189535548) translate(101.88888888888889 26.77777777777778)"/><use xlink:href="#aa" transform="matrix(1,0,0,1,-707.9999959017603,750.5675189535548) translate(18.061728395061728 53.44444444444445)"/><use xlink:href="#Q" transform="matrix(1,0,0,1,-707.9999959017603,750.5675189535548) translate(73.61728395061729 53.44444444444445)"/><use xlink:href="#R" transform="matrix(1,0,0,1,-707.9999959017603,750.5675189535548) translate(10.623456790123456 80.11111111111111)"/><use xlink:href="#ab" transform="matrix(1,0,0,1,-707.9999959017603,750.5675189535548) translate(47.660493827160494 80.11111111111111)"/><path d="M-720 446c0-3.3 2.7-6 6-6h148c3.3 0 6 2.7 6 6v108c0 3.3-2.7 6-6 6h-148c-3.3 0-6-2.7-6-6z" stroke="#5e5e5e" stroke-width="3" fill="#fff"/><use xlink:href="#N" transform="matrix(1,0,0,1,-707.9999959017603,452) translate(21.76543209876543 26.77777777777778)"/><use xlink:href="#Z" transform="matrix(1,0,0,1,-707.9999959017603,452) translate(101.88888888888889 26.77777777777778)"/><use xlink:href="#aa" transform="matrix(1,0,0,1,-707.9999959017603,452) translate(18.061728395061728 53.44444444444445)"/><use xlink:href="#Q" transform="matrix(1,0,0,1,-707.9999959017603,452) translate(73.61728395061729 53.44444444444445)"/><use xlink:href="#R" transform="matrix(1,0,0,1,-707.9999959017603,452) translate(13.339506172839506 80.11111111111111)"/><use xlink:href="#ac" transform="matrix(1,0,0,1,-707.9999959017603,452) translate(50.376543209876544 80.11111111111111)"/><path d="M-502.5 370H-634c-3.3 0-6 2.7-6 6v44" stroke="#5e5e5e" stroke-width="2" fill="none"/><path d="M-501.5 371h-1.03v-2h1.03z" fill="#5e5e5e"/><path d="M-640 435.26l-4.64-14.26h9.28z" stroke="#5e5e5e" stroke-width="2" fill="#5e5e5e"/><path d="M-502.5 683.57H-634c-3.3 0-6 2.68-6 6v29" stroke="#5e5e5e" stroke-width="2" fill="none"/><path d="M-501.5 684.57h-1.03v-2h1.03z" fill="#5e5e5e"/><path d="M-640 733.83l-4.64-14.26h9.28z" stroke="#5e5e5e" stroke-width="2" fill="#5e5e5e"/><path d="M-502.5 985.98H-614c-3.3 0-6 2.7-6 6v34" stroke="#5e5e5e" stroke-width="2" fill="none"/><path d="M-501.5 986.98h-1.03v-2h1.03z" fill="#5e5e5e"/><path d="M-620 1041.25l-4.64-14.27h9.28z" stroke="#5e5e5e" stroke-width="2" fill="#5e5e5e"/><path d="M-702.5 1780h-86.95c-3.32 0-6 2.7-6 6v151.67" stroke="#5e5e5e" stroke-width="2" fill="none"/><path d="M-701.5 1781h-1.03v-2h1.03z" fill="#5e5e5e"/><path d="M-795.45 1952.94l-4.64-14.27h9.28z" stroke="#5e5e5e" stroke-width="2" fill="#5e5e5e"/><path d="M-702.5 1440h-110.22c-3.3 0-6 2.7-6 6v491.67" stroke="#5e5e5e" stroke-width="2" fill="none"/><path d="M-701.5 1441h-1.03v-2h1.03z" fill="#5e5e5e"/><path d="M-818.72 1952.94l-4.64-14.27h9.27z" stroke="#5e5e5e" stroke-width="2" fill="#5e5e5e"/><path d="M-702.5 1105.98h-141.45c-3.32 0-6 2.7-6 6v825.7" stroke="#5e5e5e" stroke-width="2" fill="none"/><path d="M-701.5 1106.98h-1.03v-2h1.03z" fill="#5e5e5e"/><path d="M-849.95 1952.94l-4.64-14.27h9.28z" stroke="#5e5e5e" stroke-width="2" fill="#5e5e5e"/><path d="M-722.5 798.57h-154.2c-3.32 0-6 2.68-6 6v1133.1" stroke="#5e5e5e" stroke-width="2" fill="none"/><path d="M-721.5 799.57h-1.03v-2h1.03z" fill="#5e5e5e"/><path d="M-882.7 1952.94l-4.64-14.27h9.27z" stroke="#5e5e5e" stroke-width="2" fill="#5e5e5e"/><path d="M-722.5 500h-183.3c-3.3 0-6 2.7-6 6v1431.67" stroke="#5e5e5e" stroke-width="2" fill="none"/><path d="M-721.5 501h-1.03v-2h1.03z" fill="#5e5e5e"/><path d="M-911.8 1952.94l-4.63-14.27h9.27z" stroke="#5e5e5e" stroke-width="2" fill="#5e5e5e"/><path d="M-802 2317.68c17.67 0 32 17.9 32 40s-14.33 40-32 40h-96c-17.67 0-32-17.9-32-40s14.33-40 32-40z" stroke="#5e5e5e" stroke-width="3" fill="#fff"/><use xlink:href="#ad" transform="matrix(1,0,0,1,-925,2322.6757448543312) translate(20.154320987654316 39.65277777777778)"/><use xlink:href="#f" transform="matrix(1,0,0,1,-925,2322.6757448543312) translate(63.364197530864196 39.65277777777778)"/><path d="M-849 2297.67h-2v-.4h2zm0-21.75h-2v-17.9h2z" fill="#5e5e5e"/><path d="M-849 2257.03v1h-2v-1.05zM-850 2312.94l-4.64-14.27h9.28z" fill="#5e5e5e"/><path d="M-850 2316.18l-6-18.5h12zm-3.26-16.5l3.26 10.02 3.26-10.03z" fill="#5e5e5e"/><use xlink:href="#M" transform="matrix(1,0,0,1,-861.8024691358024,2275.923794169537) translate(0 14.222222222222223)"/><path d="M-270 206c0-3.3 2.7-6 6-6h84c16.57 0 30 13.43 30 30s-13.43 30-30 30h-84c-3.3 0-6-2.7-6-6z" stroke="#5e5e5e" stroke-width="3" fill="#fff"/><use xlink:href="#F" transform="matrix(1,0,0,1,-265,205) translate(23.16666666666667 17.77777777777778)"/><use xlink:href="#ae" transform="matrix(1,0,0,1,-265,205) translate(23.987654320987655 44.44444444444444)"/><path d="M-210 262.5v19.72" stroke="#5e5e5e" stroke-width="2" fill="none"/><path d="M-209 262.53h-2v-1.03h2z" fill="#5e5e5e"/><path d="M-210 297.48l-4.64-14.26h9.28z" stroke="#5e5e5e" stroke-width="2" fill="#5e5e5e"/><path d="M260 366c0-3.3 2.7-6 6-6h148c3.3 0 6 2.7 6 6v108c0 3.3-2.7 6-6 6H266c-3.3 0-6-2.7-6-6z" stroke="#5e5e5e" stroke-width="3" fill="#fff"/><use xlink:href="#af" transform="matrix(1,0,0,1,272,372) translate(11.91975308641976 38.77777777777778)"/><use xlink:href="#ag" transform="matrix(1,0,0,1,272,372) translate(64.94444444444446 38.77777777777778)"/><use xlink:href="#ah" transform="matrix(1,0,0,1,272,372) translate(93.21604938271605 38.77777777777778)"/><use xlink:href="#ai" transform="matrix(1,0,0,1,272,372) translate(8.216049382716058 65.44444444444446)"/><use xlink:href="#aj" transform="matrix(1,0,0,1,272,372) translate(79.6358024691358 65.44444444444446)"/><path d="M340 482.5V500" stroke="#5e5e5e" stroke-width="2" fill="none"/><path d="M341 482.53h-2v-1.03h2z" fill="#5e5e5e"/><path d="M340 515.26L335.36 501h9.28z" stroke="#5e5e5e" stroke-width="2" fill="#5e5e5e"/><path d="M-1500 162.5v130.12" stroke="#5e5e5e" stroke-width="2" fill="none"/><path d="M-1499 162.53h-2v-1.03h2z" fill="#5e5e5e"/><path d="M-1500 307.9l-4.64-14.27h9.28z" stroke="#5e5e5e" stroke-width="2" fill="#5e5e5e"/><path d="M-1504.74 314.1c2.62-2.04 6.86-2.04 9.48 0l80.52 62.63c2.62 2.03 2.62 5.33 0 7.37l-80.52 62.63c-2.62 2.03-6.86 2.03-9.48 0l-80.52-62.63c-2.62-2.04-2.62-5.34 0-7.37z" stroke="#5e5e5e" stroke-width="3" fill="#fff"/><use xlink:href="#j" transform="matrix(1,0,0,1,-1584.9999959017605,315.4121275728343) translate(48.86302469135803 42.15277777777778)"/><use xlink:href="#k" transform="matrix(1,0,0,1,-1584.9999959017605,315.4121275728343) translate(19.017345679012344 68.81944444444446)"/><use xlink:href="#l" transform="matrix(1,0,0,1,-1584.9999959017605,315.4121275728343) translate(107.84450617283952 68.81944444444446)"/><use xlink:href="#m" transform="matrix(1,0,0,1,-1584.9999959017605,315.4121275728343) translate(78.83216049382716 95.48611111111111)"/><path d="M-1504.74 569.3c2.62-2.04 6.86-2.04 9.48 0l80.52 62.62c2.62 2.04 2.62 5.34 0 7.37l-80.52 62.62c-2.62 2.04-6.86 2.04-9.48 0l-80.52-62.63c-2.62-2.04-2.62-5.34 0-7.38z" stroke="#5e5e5e" stroke-width="3" fill="#fff"/><use xlink:href="#n" transform="matrix(1,0,0,1,-1584.9999979508802,570.6068459682228) translate(46.14697530864198 42.15277777777778)"/><use xlink:href="#k" transform="matrix(1,0,0,1,-1584.9999979508802,570.6068459682228) translate(19.017345679012344 68.81944444444446)"/><use xlink:href="#l" transform="matrix(1,0,0,1,-1584.9999979508802,570.6068459682228) translate(107.84450617283952 68.81944444444446)"/><use xlink:href="#m" transform="matrix(1,0,0,1,-1584.9999979508802,570.6068459682228) translate(78.83216049382716 95.48611111111111)"/><path d="M-1504.64 844.26c2.56-2.1 6.72-2.1 9.28 0l100.72 82.4c2.56 2.1 2.56 5.5 0 7.6l-100.72 82.4c-2.56 2.1-6.72 2.1-9.28 0l-100.72-82.4c-2.56-2.1-2.56-5.5 0-7.6z" stroke="#5e5e5e" stroke-width="3" fill="#fff"/><use xlink:href="#o" transform="matrix(1,0,0,1,-1604.9999959017605,845.4607961036909) translate(85.31364197530864 33.71527777777778)"/><use xlink:href="#p" transform="matrix(1,0,0,1,-1604.9999959017605,845.4607961036909) translate(63.67783950617284 60.38194444444445)"/><use xlink:href="#q" transform="matrix(1,0,0,1,-1604.9999959017605,845.4607961036909) translate(34.17166666666666 87.04861111111111)"/><use xlink:href="#r" transform="matrix(1,0,0,1,-1604.9999959017605,845.4607961036909) translate(83.49265432098765 87.04861111111111)"/><use xlink:href="#s" transform="matrix(1,0,0,1,-1604.9999959017605,845.4607961036909) translate(102.01117283950617 87.04861111111111)"/><use xlink:href="#t" transform="matrix(1,0,0,1,-1604.9999959017605,845.4607961036909) translate(147.56672839506174 87.04861111111111)"/><use xlink:href="#u" transform="matrix(1,0,0,1,-1604.9999959017605,845.4607961036909) translate(43.98648148148148 113.7152777777778)"/><use xlink:href="#q" transform="matrix(1,0,0,1,-1604.9999959017605,845.4607961036909) translate(92.01117283950617 113.7152777777778)"/><use xlink:href="#ak" transform="matrix(1,0,0,1,-1604.9999959017605,845.4607961036909) translate(141.33216049382713 113.7152777777778)"/><use xlink:href="#w" transform="matrix(1,0,0,1,-1604.9999959017605,845.4607961036909) translate(87.1654938271605 140.38194444444446)"/><path d="M-1504.64 1155.53c2.56-2.1 6.72-2.1 9.28 0l100.72 82.4c2.56 2.1 2.56 5.5 0 7.6l-100.72 82.4c-2.56 2.1-6.72 2.1-9.28 0l-100.72-82.4c-2.56-2.1-2.56-5.5 0-7.6z" stroke="#5e5e5e" stroke-width="3" fill="#fff"/><use xlink:href="#x" transform="matrix(1,0,0,1,-1604.9999959017605,1156.7311880374164) translate(84.63462962962963 33.71527777777778)"/><use xlink:href="#p" transform="matrix(1,0,0,1,-1604.9999959017605,1156.7311880374164) translate(63.67783950617284 60.38194444444445)"/><use xlink:href="#q" transform="matrix(1,0,0,1,-1604.9999959017605,1156.7311880374164) translate(34.17166666666666 87.04861111111111)"/><use xlink:href="#r" transform="matrix(1,0,0,1,-1604.9999959017605,1156.7311880374164) translate(83.49265432098765 87.04861111111111)"/><use xlink:href="#s" transform="matrix(1,0,0,1,-1604.9999959017605,1156.7311880374164) translate(102.01117283950617 87.04861111111111)"/><use xlink:href="#t" transform="matrix(1,0,0,1,-1604.9999959017605,1156.7311880374164) translate(147.56672839506174 87.04861111111111)"/><use xlink:href="#u" transform="matrix(1,0,0,1,-1604.9999959017605,1156.7311880374164) translate(43.98648148148148 113.7152777777778)"/><use xlink:href="#q" transform="matrix(1,0,0,1,-1604.9999959017605,1156.7311880374164) translate(92.01117283950617 113.7152777777778)"/><use xlink:href="#ak" transform="matrix(1,0,0,1,-1604.9999959017605,1156.7311880374164) translate(141.33216049382713 113.7152777777778)"/><use xlink:href="#w" transform="matrix(1,0,0,1,-1604.9999959017605,1156.7311880374164) translate(87.1654938271605 140.38194444444446)"/><path d="M-1504.85 1452.7c2.68-1.95 7.02-1.95 9.7 0l100.3 72.94c2.68 1.95 2.68 5.1 0 7.06l-100.3 72.94c-2.68 1.95-7.02 1.95-9.7 0l-100.3-72.94c-2.68-1.95-2.68-5.1 0-7.06z" stroke="#5e5e5e" stroke-width="3" fill="#fff"/><use xlink:href="#y" transform="matrix(1,0,0,1,-1604.9999959017605,1454.1679833092849) translate(71.7333950617284 59.96527777777778)"/><use xlink:href="#k" transform="matrix(1,0,0,1,-1604.9999959017605,1454.1679833092849) translate(39.01734567901235 86.63194444444446)"/><use xlink:href="#l" transform="matrix(1,0,0,1,-1604.9999959017605,1454.1679833092849) translate(127.84450617283952 86.63194444444446)"/><use xlink:href="#al" transform="matrix(1,0,0,1,-1604.9999959017605,1454.1679833092849) translate(86.48648148148149 113.29861111111111)"/><path d="M-1504.8 1972.77c2.65-2 6.95-2 9.6 0l70.4 52.8c2.65 2 2.65 5.2 0 7.2l-70.4 52.8c-2.65 2-6.95 2-9.6 0l-70.4-52.8c-2.65-2-2.65-5.2 0-7.2z" stroke="#5e5e5e" stroke-width="3" fill="#fff"/><use xlink:href="#B" transform="matrix(1,0,0,1,-1574.999991803521,1974.1679833092849) translate(42.31981481481481 45.27777777777778)"/><use xlink:href="#C" transform="matrix(1,0,0,1,-1574.999991803521,1974.1679833092849) translate(59.54203703703703 45.27777777777778)"/><use xlink:href="#D" transform="matrix(1,0,0,1,-1574.999991803521,1974.1679833092849) translate(47.875370370370376 71.94444444444446)"/><path d="M-1970 237.5v-15.33c0-3.32 2.7-6 6-6h445.5" stroke="#5e5e5e" stroke-width="2" fill="none"/><path d="M-1969 238.54l-.97-.04h-1.03v-1.03h2z" fill="#5e5e5e"/><path d="M-1503.24 216.17l-14.26 4.63v-9.27z" stroke="#5e5e5e" stroke-width="2" fill="#5e5e5e"/><path d="M-1969 2023.04l.7 2.64 1.8 1.77 2.63.72h273.02v2h-273.28l-3.42-.93-2.53-2.53-.92-3.4V380h2zm389.4 5.13v2h-80.64v-2z" fill="#5e5e5e"/><path d="M-1578.72 2028.56l.28 1.6h-1.2v-2h1.1zM-1965.36 379h-9.28l4.64-14.26z" fill="#5e5e5e"/><path d="M-1964 380h-12l6-18.5zm-9.26-2h6.52l-3.26-10.03z" fill="#5e5e5e"/><use xlink:href="#E" transform="matrix(1,0,0,1,-1690.8526650214462,2018.5013166426181) translate(0 14.222222222222223)"/><path d="M-1499 547.82h-2v-29.14h2zm0-50.48h-2V450.7h2z" fill="#5e5e5e"/><path d="M-1499.06 449.72l.06 1h-2v-1.06zM-1500 563.1l-4.64-14.28h9.28z" fill="#5e5e5e"/><path d="M-1500 566.33l-6-18.5h12zm-3.26-16.5l3.26 10.02 3.26-10.03z" fill="#5e5e5e"/><use xlink:href="#M" transform="matrix(1,0,0,1,-1511.8024650396624,497.3428201038619) translate(0 14.222222222222223)"/><path d="M-1499 822.75h-2v-39.02h2zm0-60.35h-2v-56.5h2z" fill="#5e5e5e"/><path d="M-1499.06 704.92l.06 1h-2v-1.07zM-1500 838l-4.64-14.25h9.28z" fill="#5e5e5e"/><path d="M-1500 841.25l-6-18.5h12zm-3.26-16.5l3.26 10.03 3.26-10.03z" fill="#5e5e5e"/><use xlink:href="#M" transform="matrix(1,0,0,1,-1511.8024670845834,762.4008553568111) translate(0 14.222222222222223)"/><path d="M-1499 1134.02h-2v-37.26h2zm0-58.6h-2v-54.75h2z" fill="#5e5e5e"/><path d="M-1499.17 1019.7l.17-.03v1.03h-2v-1.08zM-1500 1149.28l-4.64-14.26h9.28z" fill="#5e5e5e"/><path d="M-1500 1152.52l-6-18.5h12zm-3.26-16.5l3.26 10.03 3.26-10.03z" fill="#5e5e5e"/><use xlink:href="#M" transform="matrix(1,0,0,1,-1511.802465037563,1075.4293254038869) translate(0 14.222222222222223)"/><path d="M-1499 1431.3h-2v-30.26h2zm0-51.6h-2v-47.76h2z" fill="#5e5e5e"/><path d="M-1499.17 1330.98l.17-.04v1.03h-2v-1.07zM-1500 1446.56l-4.64-14.27h9.28z" fill="#5e5e5e"/><path d="M-1500 1449.8l-6-18.5h12zm-3.26-16.5l3.26 10.02 3.26-10.03z" fill="#5e5e5e"/><use xlink:href="#M" transform="matrix(1,0,0,1,-1511.802465037563,1379.7029375140323) translate(0 14.222222222222223)"/><path d="M-1499 1659.17v32.12h-2v-58.69h2zm0-47.9h-2v-1.73h2z" fill="#5e5e5e"/><path d="M-1499 1608.56v1h-2v-1.04zM-1500 1706.56l-4.64-14.27h9.28z" fill="#5e5e5e"/><path d="M-1500 1709.8l-6-18.5h12zm-3.26-16.5l3.26 10.02 3.26-10.03z" fill="#5e5e5e"/><use xlink:href="#M" transform="matrix(1,0,0,1,-1511.802465037563,1611.2743053002778) translate(0 14.222222222222223)"/><path d="M-1452 2220c17.67 0 32 17.9 32 40s-14.33 40-32 40h-96c-17.67 0-32-17.9-32-40s14.33-40 32-40z" stroke="#5e5e5e" stroke-width="3" fill="#fff"/><use xlink:href="#ad" transform="matrix(1,0,0,1,-1574.999991803521,2225) translate(26.913580246913583 39.65277777777778)"/><use xlink:href="#i" transform="matrix(1,0,0,1,-1574.999991803521,2225) translate(70.12345679012347 39.65277777777778)"/><path d="M-1499 2200h-2v-35.83h2zm0-57.17h-2v-53.33h2z" fill="#5e5e5e"/><path d="M-1499 2088.52v1h-2v-1.05zM-1500 2215.26l-4.64-14.26h9.28z" fill="#5e5e5e"/><path d="M-1500 2218.5l-6-18.5h12zm-3.26-16.5l3.26 10.03 3.26-10.03z" fill="#5e5e5e"/><use xlink:href="#M" transform="matrix(1,0,0,1,-1511.8024609393235,2142.8320409698485) translate(0 14.222222222222223)"/><path d="M-1643.83 1530.17H-1670v-2h26.17zm34.27 0h-4.64v-2h4.64z" fill="#5e5e5e"/><path d="M-1608.67 1528.44l.27 1.73h-1.18v-2h1.03zM-1671 1533.8l-14.26-4.63 14.26-4.64z" fill="#5e5e5e"/><path d="M-1670 1535.18l-18.5-6 18.5-6.02zm-12.03-6l10.03 3.25v-6.52z" fill="#5e5e5e"/><use xlink:href="#am" transform="matrix(1,0,0,1,-1643.829333060544,1518.5013166426181) translate(0 14.222222222222223)"/><path d="M-1655.37 1242.73H-1670v-2h14.63zm45.6 0h-15.97v-2h15.98z" fill="#5e5e5e"/><path d="M-1608.82 1241.44l.26 1.3h-1.23v-2h1.2zM-1671 1246.37l-14.26-4.64 14.26-4.63z" fill="#5e5e5e"/><path d="M-1670 1247.74l-18.5-6 18.5-6.02zm-12.03-6l10.03 3.25v-6.53z" fill="#5e5e5e"/><g><use xlink:href="#am" transform="matrix(1,0,0,1,-1655.373848000231,1231.0645213707496) translate(0 14.222222222222223)"/></g><path d="M-1656.27 931.46H-1670v-2h13.73zm46.5 0h-16.87v-2h16.88z" fill="#5e5e5e"/><path d="M-1608.82 930.17l.26 1.3h-1.23v-2h1.2zM-1671 935.1l-14.26-4.64 14.26-4.63z" fill="#5e5e5e"/><path d="M-1670 936.47l-18.5-6 18.5-6.02zm-12.03-6l10.03 3.25v-6.52z" fill="#5e5e5e"/><g><use xlink:href="#am" transform="matrix(1,0,0,1,-1656.2668300992018,919.7941294370243) translate(0 14.222222222222223)"/></g><path d="M-1643.36 636.6H-1670v-2h26.64zm53.7 0h-24.07v-2h24.06z" fill="#5e5e5e"/><path d="M-1588.76 635.13l.27 1.48h-1.2v-2h1.13zM-1671 640.24l-14.26-4.63 14.26-4.63z" fill="#5e5e5e"/><path d="M-1670 641.62l-18.5-6 18.5-6.02zm-12.03-6l10.03 3.25v-6.52z" fill="#5e5e5e"/><g><use xlink:href="#am" transform="matrix(1,0,0,1,-1643.3602174016444,624.9401793015562) translate(0 14.222222222222223)"/></g><path d="M-1642.13 381.4H-1670v-2h27.87zm52.46 0h-22.83v-2h22.83z" fill="#5e5e5e"/><path d="M-1588.76 379.94l.27 1.47h-1.2v-2h1.13zM-1671 385.05l-14.26-4.64 14.26-4.62z" fill="#5e5e5e"/><path d="M-1670 386.42l-18.5-6 18.5-6.02zm-12.03-6l10.03 3.25v-6.52z" fill="#5e5e5e"/><g><use xlink:href="#am" transform="matrix(1,0,0,1,-1642.1318930958705,369.74546090616764) translate(0 14.222222222222223)"/></g><path d="M-1504.85 1712.7c2.68-1.95 7.02-1.95 9.7 0l100.3 72.94c2.68 1.95 2.68 5.1 0 7.06l-100.3 72.94c-2.68 1.95-7.02 1.95-9.7 0l-100.3-72.94c-2.68-1.95-2.68-5.1 0-7.06z" stroke="#5e5e5e" stroke-width="3" fill="#fff"/><g><use xlink:href="#an" transform="matrix(1,0,0,1,-1604.999991803521,1714.1679833092849) translate(52.56672839506174 55.27777777777778)"/><use xlink:href="#ao" transform="matrix(1,0,0,1,-1604.999991803521,1714.1679833092849) translate(106.88771604938272 55.27777777777778)"/><use xlink:href="#ap" transform="matrix(1,0,0,1,-1604.999991803521,1714.1679833092849) translate(34.07907407407407 81.94444444444446)"/><use xlink:href="#aq" transform="matrix(1,0,0,1,-1604.999991803521,1714.1679833092849) translate(89.63462962962963 81.94444444444446)"/><use xlink:href="#ar" transform="matrix(1,0,0,1,-1604.999991803521,1714.1679833092849) translate(75.40623456790124 108.61111111111111)"/></g><path d="M-1499 1951.34h-2v-21.48h2zm0-42.82h-2v-38.98h2z" fill="#5e5e5e"/><path d="M-1499 1868.56v1h-2v-1.04zM-1500 1966.6l-4.64-14.26h9.28z" fill="#5e5e5e"/><path d="M-1500 1969.84l-6-18.5h12zm-3.26-16.5l3.26 10.03 3.26-10.03z" fill="#5e5e5e"/><g><use xlink:href="#E" transform="matrix(1,0,0,1,-1515.3086337788295,1908.5227057646607) translate(0 14.222222222222223)"/></g><path d="M-1660.33 1790.17h-9.67v-2h9.67zm50.77 0h-27.17v-2h27.17z" fill="#5e5e5e"/><path d="M-1608.67 1788.44l.27 1.73h-1.18v-2h1.03zM-1671 1793.8l-14.26-4.63 14.26-4.64z" fill="#5e5e5e"/><path d="M-1670 1795.18l-18.5-6 18.5-6.02zm-12.03-6l10.03 3.25v-6.52z" fill="#5e5e5e"/><g><use xlink:href="#M" transform="matrix(1,0,0,1,-1660.33213119662,1778.5013166426181) translate(0 14.222222222222223)"/></g><path d="M-1850 1735.17c0-3.32 2.7-6 6-6h148c3.3 0 6 2.68 6 6v108c0 3.3-2.7 6-6 6h-148c-3.3 0-6-2.7-6-6z" stroke="#5e5e5e" stroke-width="3" fill="#fff"/><g><use xlink:href="#as" transform="matrix(1,0,0,1,-1837.9999959017605,1741.1679833092849) translate(30.962962962962962 53.77777777777778)"/><use xlink:href="#at" transform="matrix(1,0,0,1,-1837.9999959017605,1741.1679833092849) translate(74.17283950617283 53.77777777777778)"/></g><path d="M-1769 1914.94l.7 2.65 1.8 1.76 2.63.72h225.74l3.42.92 2.52 2.53.92 3.4V1973h-2v-45.8l-.7-2.63-1.8-1.78-2.63-.72h-225.73l-3.42-.93-2.53-2.53-.92-3.4v-63.55h2z" fill="#5e5e5e"/><path d="M-1769 1851.7h-2v-1.03h2zM-1532.26 1988.25l-4.63-14.26h9.28z" fill="#5e5e5e"/><path d="M-1532.26 1991.5l-6-18.5h12zm-3.26-16.5l3.26 10.02 3.26-10.03z" fill="#5e5e5e"/><path d="M-1850 1475.17c0-3.32 2.7-6 6-6h148c3.3 0 6 2.68 6 6v108c0 3.3-2.7 6-6 6h-148c-3.3 0-6-2.7-6-6z" stroke="#5e5e5e" stroke-width="3" fill="#fff"/><g><use xlink:href="#au" transform="matrix(1,0,0,1,-1837.9999959017605,1481.1679833092849) translate(6.950617283950621 53.77777777777778)"/><use xlink:href="#at" transform="matrix(1,0,0,1,-1837.9999959017605,1481.1679833092849) translate(98.18518518518519 53.77777777777778)"/></g><path d="M-1850 1187.73c0-3.3 2.7-6 6-6h148c3.3 0 6 2.7 6 6v108c0 3.3-2.7 6-6 6h-148c-3.3 0-6-2.7-6-6z" stroke="#5e5e5e" stroke-width="3" fill="#fff"/><g><use xlink:href="#au" transform="matrix(1,0,0,1,-1837.9999959017605,1193.7311880374164) translate(6.950617283950621 53.77777777777778)"/><use xlink:href="#at" transform="matrix(1,0,0,1,-1837.9999959017605,1193.7311880374164) translate(98.18518518518519 53.77777777777778)"/></g><path d="M-1850 876.46c0-3.3 2.7-6 6-6h148c3.3 0 6 2.7 6 6v108c0 3.3-2.7 6-6 6h-148c-3.3 0-6-2.7-6-6z" stroke="#5e5e5e" stroke-width="3" fill="#fff"/><g><use xlink:href="#au" transform="matrix(1,0,0,1,-1837.9999959017605,882.4607961036909) translate(6.950617283950621 53.77777777777778)"/><use xlink:href="#at" transform="matrix(1,0,0,1,-1837.9999959017605,882.4607961036909) translate(98.18518518518519 53.77777777777778)"/></g><path d="M-1850 581.6c0-3.3 2.7-6 6-6h148c3.3 0 6 2.7 6 6v108c0 3.32-2.7 6-6 6h-148c-3.3 0-6-2.68-6-6z" stroke="#5e5e5e" stroke-width="3" fill="#fff"/><g><use xlink:href="#au" transform="matrix(1,0,0,1,-1837.9999959017605,587.6068459682228) translate(6.950617283950621 53.77777777777778)"/><use xlink:href="#at" transform="matrix(1,0,0,1,-1837.9999959017605,587.6068459682228) translate(98.18518518518519 53.77777777777778)"/></g><path d="M-1850 326.4c0-3.3 2.7-6 6-6h148c3.3 0 6 2.7 6 6v108c0 3.33-2.7 6-6 6h-148c-3.3 0-6-2.67-6-6z" stroke="#5e5e5e" stroke-width="3" fill="#fff"/><g><use xlink:href="#au" transform="matrix(1,0,0,1,-1837.9999959017605,332.4121275728343) translate(6.950617283950621 53.77777777777778)"/><use xlink:href="#at" transform="matrix(1,0,0,1,-1837.9999959017605,332.4121275728343) translate(98.18518518518519 53.77777777777778)"/></g><path d="M-1769 1654.35l.7 2.64 1.8 1.77 2.63.7h226.4l3.42.93 2.53 2.53.92 3.42v45.44h-2v-45.2l-.7-2.63-1.8-1.78-2.63-.72h-226.4l-3.42-.92-2.53-2.53-.92-3.42v-62.93h2z" fill="#5e5e5e"/><path d="M-1769 1591.7h-2v-1.03h2zM-1531.6 1727.06l-4.63-14.27h9.27z" fill="#5e5e5e"/><path d="M-1531.6 1730.3l-6-18.5h12.02zm-3.25-16.5l3.25 10.02 3.26-10.03zM-1769 1380l.7 2.63 1.8 1.78 2.63.72h228.17l3.4.93 2.54 2.53.92 3.4v58.53h-2v-58.25l-.7-2.64-1.8-1.76-2.63-.72h-228.16l-3.42-.92-2.53-2.53-.92-3.42v-76.02h2zM-1769 1304.26h-2v-1.03h2zM-1529.84 1465.78l-4.63-14.27h9.27z" fill="#5e5e5e"/><path d="M-1529.84 1469l-6-18.5h12.02zm-3.26-16.5l3.26 10.04 3.26-10.03zM-1769 1076.96l.7 2.64 1.8 1.78 2.63.7h228.14l3.4.94 2.54 2.53.94 3.4v66.77h-2v-66.5l-.72-2.64-1.77-1.77-2.65-.7h-228.13l-3.42-.93-2.53-2.53-.92-3.4v-84.28h2z" fill="#5e5e5e"/><path d="M-1769 993h-2v-1.04h2zM-1529.86 1171l-4.64-14.28h9.27z" fill="#5e5e5e"/><path d="M-1529.86 1174.23l-6-18.5h12zm-3.26-16.5l3.26 10.02 3.26-10.03zM-1769 779.2l.7 2.63 1.8 1.77 2.63.72h215.2l3.43.92 2.53 2.53.9 3.42v63.83h-2v-63.58l-.7-2.64-1.78-1.77-2.64-.7h-215.2l-3.43-.93-2.53-2.53-.92-3.42V698.1h2z" fill="#5e5e5e"/><path d="M-1769 698.13h-2v-1.02h2zM-1542.8 870.3l-4.62-14.27h9.27z" fill="#5e5e5e"/><path d="M-1542.8 873.53l-6-18.5h12.02zm-3.25-16.5l3.26 10.03 3.27-10.03zM-1769 508l.7 2.64 1.8 1.77 2.63.73h228.9l3.4.92 2.54 2.53.92 3.42v47.84h-2v-47.58l-.72-2.64-1.78-1.78-2.64-.7h-228.9l-3.4-.93-2.54-2.52-.92-3.42V442.9h2z" fill="#5e5e5e"/><path d="M-1769 442.94h-2v-1.03h2zM-1529.1 583.1l-4.64-14.26h9.27z" fill="#5e5e5e"/><path d="M-1529.1 586.35l-6.02-18.5h12.02zm-3.27-16.5l3.26 10.02 3.25-10.03z" fill="#5e5e5e"/><path d="M-2030 246c0-3.3 2.7-6 6-6h54c33.14 0 60 26.86 60 60s-26.86 60-60 60h-54c-3.3 0-6-2.7-6-6z" stroke="#5e5e5e" stroke-width="3" fill="#fff"/><g><use xlink:href="#F" transform="matrix(1,0,0,1,-2025,245) translate(20.66666666666667 31.52777777777778)"/><use xlink:href="#av" transform="matrix(1,0,0,1,-2025,245) translate(19.19753086419754 58.19444444444445)"/><use xlink:href="#H" transform="matrix(1,0,0,1,-2025,245) translate(84.62962962962962 58.19444444444445)"/><use xlink:href="#d" transform="matrix(1,0,0,1,-2025,245) translate(20.25308641975309 84.86111111111111)"/></g><path d="M-2400 80c22.1 0 40 17.9 40 40s-17.9 40-40 40h-120c-22.1 0-40-17.9-40-40s17.9-40 40-40z" stroke="#5e5e5e" stroke-width="3" fill="#fff"/><g><use xlink:href="#e" transform="matrix(1,0,0,1,-2555,85) translate(16.111111111111114 39.65277777777778)"/><use xlink:href="#ai" transform="matrix(1,0,0,1,-2555,85) translate(65.4320987654321 39.65277777777778)"/><use xlink:href="#aw" transform="matrix(1,0,0,1,-2555,85) translate(136.85185185185185 39.65277777777778)"/></g><path d="M-2540 595.04c0-3.32 2.7-6 6-6h148c3.3 0 6 2.68 6 6v108c0 3.3-2.7 6-6 6h-148c-3.3 0-6-2.7-6-6z" stroke="#5e5e5e" stroke-width="3" fill="#fff"/><g><use xlink:href="#as" transform="matrix(1,0,0,1,-2528,601.037591022489) translate(12.444444444444443 53.77777777777778)"/><use xlink:href="#r" transform="matrix(1,0,0,1,-2528,601.037591022489) translate(55.65432098765432 53.77777777777778)"/><use xlink:href="#ax" transform="matrix(1,0,0,1,-2528,601.037591022489) translate(74.17283950617283 53.77777777777778)"/></g><path d="M-2460 162.5V220" stroke="#5e5e5e" stroke-width="2" fill="none"/><path d="M-2459 162.53h-2v-1.03h2z" fill="#5e5e5e"/><path d="M-2460 235.26l-4.64-14.26h9.28z" stroke="#5e5e5e" stroke-width="2" fill="#5e5e5e"/><path d="M-2460 539.17v29.87" stroke="#5e5e5e" stroke-width="2" fill="none"/><path d="M-2459 539.2h-2v-1.03h2z" fill="#5e5e5e"/><path d="M-2460 584.3l-4.64-14.26h9.28z" stroke="#5e5e5e" stroke-width="2" fill="#5e5e5e"/><path d="M-2460 362.5V400" stroke="#5e5e5e" stroke-width="2" fill="none"/><path d="M-2459 362.53h-2v-1.03h2z" fill="#5e5e5e"/><path d="M-2460 415.26l-4.64-14.26h9.28z" stroke="#5e5e5e" stroke-width="2" fill="#5e5e5e"/><path d="M-2464.8 763.6c2.65-2 6.95-2 9.6 0l70.4 52.8c2.65 2 2.65 5.2 0 7.2l-70.4 52.8c-2.65 2-6.95 2-9.6 0l-70.4-52.8c-2.65-2-2.65-5.2 0-7.2z" stroke="#5e5e5e" stroke-width="3" fill="#fff"/><g><use xlink:href="#ay" transform="matrix(1,0,0,1,-2535,765) translate(20.714876543209876 59.02777777777778)"/><use xlink:href="#D" transform="matrix(1,0,0,1,-2535,765) translate(75.03586419753087 59.02777777777778)"/></g><path d="M-2460 711.54v30.63" stroke="#5e5e5e" stroke-width="2" fill="none"/><path d="M-2459 711.56h-2v-1.02h2z" fill="#5e5e5e"/><path d="M-2460 757.43l-4.64-14.26h9.28z" stroke="#5e5e5e" stroke-width="2" fill="#5e5e5e"/><path d="M-2609 813.87l.7 2.64 1.8 1.8 2.63.7h64.26v2h-64.53l-3.42-.92-2.53-2.53-.92-3.42v-291.2h2zm130.5-616.25h-125.37l-2.64.72-1.8 1.77-.7 2.65V501.6h-2V202.5l.92-3.43 2.53-2.53 3.42-.92h125.63z" fill="#5e5e5e"/><path d="M-2538.72 819.4l.28 1.6h-1.2v-2h1.1zM-2463.24 196.62l-14.26 4.64V192z" fill="#5e5e5e"/><path d="M-2460 196.62l-18.5 6v-12zm-16.5 3.26l10.03-3.26-10.03-3.26z" fill="#5e5e5e"/><g><use xlink:href="#E" transform="matrix(1,0,0,1,-2625.3086419753085,501.59472626101757) translate(0 14.222222222222223)"/></g><path d="M-2459 939.06h-2v-9.95h2zm0-31.28h-2v-27.45h2z" fill="#5e5e5e"/><path d="M-2459 879.35v1h-2v-1.04zM-2460 954.32l-4.64-14.26h9.28z" fill="#5e5e5e"/><path d="M-2460 957.56l-6-18.5h12zm-3.26-16.5l3.26 10.03 3.26-10.04z" fill="#5e5e5e"/><g><use xlink:href="#M" transform="matrix(1,0,0,1,-2471.8024691358023,907.7779772462716) translate(0 14.222222222222223)"/></g><path d="M-2406 959.06c19.88 0 36 17.9 36 40s-16.12 40-36 40h-108c-19.88 0-36-17.9-36-40s16.12-40 36-40z" stroke="#5e5e5e" stroke-width="3" fill="#fff"/><g><use xlink:href="#ad" transform="matrix(1,0,0,1,-2545,964.0598558621316) translate(9.166666666666671 39.65277777777778)"/><use xlink:href="#ai" transform="matrix(1,0,0,1,-2545,964.0598558621316) translate(52.37654320987655 39.65277777777778)"/><use xlink:href="#aw" transform="matrix(1,0,0,1,-2545,964.0598558621316) translate(123.79629629629629 39.65277777777778)"/></g><path d="M-2540 246c0-3.3 2.7-6 6-6h148c3.3 0 6 2.7 6 6v108c0 3.3-2.7 6-6 6h-148c-3.3 0-6-2.7-6-6z" stroke="#5e5e5e" stroke-width="3" fill="#fff"/><g><use xlink:href="#az" transform="matrix(1,0,0,1,-2528,252) translate(24.23456790123457 26.77777777777778)"/><use xlink:href="#aA" transform="matrix(1,0,0,1,-2528,252) translate(18.70987654320988 53.44444444444445)"/><use xlink:href="#aB" transform="matrix(1,0,0,1,-2528,252) translate(77.9074074074074 53.44444444444445)"/><use xlink:href="#aC" transform="matrix(1,0,0,1,-2528,252) translate(30.407407407407412 80.11111111111111)"/></g><path d="M-2540 426c0-3.3 2.7-6 6-6h95.67c32.2 0 58.33 26.12 58.33 58.33 0 32.22-26.12 58.34-58.33 58.34H-2534c-3.3 0-6-2.7-6-6z" stroke="#5e5e5e" stroke-width="3" fill="#fff"/><g><use xlink:href="#F" transform="matrix(1,0,0,1,-2535,425) translate(41.16666666666667 31.15277777777778)"/><use xlink:href="#aD" transform="matrix(1,0,0,1,-2535,425) translate(6.543209876543216 57.81944444444445)"/><use xlink:href="#aE" transform="matrix(1,0,0,1,-2535,425) translate(43.580246913580254 57.81944444444445)"/><use xlink:href="#aF" transform="matrix(1,0,0,1,-2535,425) translate(42.98765432098766 84.48611111111111)"/></g><path d="M260 865.06c0-3.3 2.7-6 6-6h148c3.3 0 6 2.7 6 6v108c0 3.3-2.7 6-6 6H266c-3.3 0-6-2.7-6-6z" stroke="#5e5e5e" stroke-width="3" fill="#fff"/><g><use xlink:href="#aG" transform="matrix(1,0,0,1,272,871.0598558621316) translate(26.024691358024697 38.77777777777778)"/><use xlink:href="#C" transform="matrix(1,0,0,1,272,871.0598558621316) translate(61.827160493827165 38.77777777777778)"/><use xlink:href="#aH" transform="matrix(1,0,0,1,272,871.0598558621316) translate(2.0123456790123413 65.44444444444446)"/><use xlink:href="#aI" transform="matrix(1,0,0,1,272,871.0598558621316) translate(62.444444444444436 65.44444444444446)"/><use xlink:href="#aJ" transform="matrix(1,0,0,1,272,871.0598558621316) translate(87.1358024691358 65.44444444444446)"/></g><path d="M340 812.5v26.56" stroke="#5e5e5e" stroke-width="2" fill="none"/><path d="M341 812.53h-2v-1.03h2z" fill="#5e5e5e"/><path d="M340 854.32l-4.64-14.26h9.28z" stroke="#5e5e5e" stroke-width="2" fill="#5e5e5e"/><path d="M340 981.56V1020" stroke="#5e5e5e" stroke-width="2" fill="none"/><path d="M341 981.6h-2v-1.04h2z" fill="#5e5e5e"/><path d="M340 1035.26l-4.64-14.26h9.28z" stroke="#5e5e5e" stroke-width="2" fill="#5e5e5e"/><path d="M388 1040c17.67 0 32 17.9 32 40s-14.33 40-32 40h-96c-17.67 0-32-17.9-32-40s14.33-40 32-40z" stroke="#5e5e5e" stroke-width="3" fill="#fff"/><g><use xlink:href="#aK" transform="matrix(1,0,0,1,265,1045) translate(56.48148148148148 39.65277777777778)"/></g><defs><path fill="#333" d="M135-143c-3-34-86-38-87 0 15 53 115 12 119 90S17 21 10-45l28-5c4 36 97 45 98 0-10-56-113-15-118-90-4-57 82-63 122-42 12 7 21 19 24 35" id="aL"/><path fill="#333" d="M59-47c-2 24 18 29 38 22v24C64 9 27 4 27-40v-127H5v-23h24l9-43h21v43h35v23H59v120" id="aM"/><path fill="#333" d="M141-36C126-15 110 5 73 4 37 3 15-17 15-53c-1-64 63-63 125-63 3-35-9-54-41-54-24 1-41 7-42 31l-33-3c5-37 33-52 76-52 45 0 72 20 72 64v82c-1 20 7 32 28 27v20c-31 9-61-2-59-35zM48-53c0 20 12 33 32 33 41-3 63-29 60-74-43 2-92-5-92 41" id="aN"/><path fill="#333" d="M114-163C36-179 61-72 57 0H25l-1-190h30c1 12-1 29 2 39 6-27 23-49 58-41v29" id="aO"/><g id="a"><use transform="matrix(0.06172839506172839,0,0,0.06172839506172839,0,0)" xlink:href="#aL"/><use transform="matrix(0.06172839506172839,0,0,0.06172839506172839,11.11111111111111,0)" xlink:href="#aM"/><use transform="matrix(0.06172839506172839,0,0,0.06172839506172839,17.28395061728395,0)" xlink:href="#aN"/><use transform="matrix(0.06172839506172839,0,0,0.06172839506172839,29.629629629629626,0)" xlink:href="#aO"/><use transform="matrix(0.06172839506172839,0,0,0.06172839506172839,36.9753086419753,0)" xlink:href="#aM"/></g><path fill="#333" d="M185-189c-5-48-123-54-124 2 14 75 158 14 163 119 3 78-121 87-175 55-17-10-28-26-33-46l33-7c5 56 141 63 141-1 0-78-155-14-162-118-5-82 145-84 179-34 5 7 8 16 11 25" id="aP"/><path fill="#333" d="M100-194c63 0 86 42 84 106H49c0 40 14 67 53 68 26 1 43-12 49-29l28 8c-11 28-37 45-77 45C44 4 14-33 15-96c1-61 26-98 85-98zm52 81c6-60-76-77-97-28-3 7-6 17-6 28h103" id="aQ"/><path fill="#333" d="M24 0v-261h32V0H24" id="aR"/><path fill="#333" d="M96-169c-40 0-48 33-48 73s9 75 48 75c24 0 41-14 43-38l32 2c-6 37-31 61-74 61-59 0-76-41-82-99-10-93 101-131 147-64 4 7 5 14 7 22l-32 3c-4-21-16-35-41-35" id="aS"/><g id="b"><use transform="matrix(0.06172839506172839,0,0,0.06172839506172839,0,0)" xlink:href="#aP"/><use transform="matrix(0.06172839506172839,0,0,0.06172839506172839,14.814814814814813,0)" xlink:href="#aQ"/><use transform="matrix(0.06172839506172839,0,0,0.06172839506172839,27.160493827160494,0)" xlink:href="#aR"/><use transform="matrix(0.06172839506172839,0,0,0.06172839506172839,32.03703703703704,0)" xlink:href="#aQ"/><use transform="matrix(0.06172839506172839,0,0,0.06172839506172839,44.382716049382715,0)" xlink:href="#aS"/><use transform="matrix(0.06172839506172839,0,0,0.06172839506172839,55.49382716049382,0)" xlink:href="#aM"/></g><path fill="#333" d="M24-231v-30h32v30H24zM24 0v-190h32V0H24" id="aT"/><path fill="#333" d="M210-169c-67 3-38 105-44 169h-31v-121c0-29-5-50-35-48C34-165 62-65 56 0H25l-1-190h30c1 10-1 24 2 32 10-44 99-50 107 0 11-21 27-35 58-36 85-2 47 119 55 194h-31v-121c0-29-5-49-35-48" id="aU"/><g id="c"><use transform="matrix(0.06172839506172839,0,0,0.06172839506172839,0,0)" xlink:href="#aM"/><use transform="matrix(0.06172839506172839,0,0,0.06172839506172839,6.172839506172839,0)" xlink:href="#aT"/><use transform="matrix(0.06172839506172839,0,0,0.06172839506172839,11.049382716049383,0)" xlink:href="#aU"/><use transform="matrix(0.06172839506172839,0,0,0.06172839506172839,29.50617283950617,0)" xlink:href="#aQ"/></g><path fill="#333" d="M115-194c55 1 70 41 70 98S169 2 115 4C84 4 66-9 55-30l1 105H24l-1-265h31l2 30c10-21 28-34 59-34zm-8 174c40 0 45-34 45-75s-6-73-45-74c-42 0-51 32-51 76 0 43 10 73 51 73" id="aV"/><path fill="#333" d="M85-194c31 0 48 13 60 33l-1-100h32l1 261h-30c-2-10 0-23-3-31C134-8 116 4 85 4 32 4 16-35 15-94c0-66 23-100 70-100zm9 24c-40 0-46 34-46 75 0 40 6 74 45 74 42 0 51-32 51-76 0-42-9-74-50-73" id="aW"/><g id="d"><use transform="matrix(0.06172839506172839,0,0,0.06172839506172839,0,0)" xlink:href="#aL"/><use transform="matrix(0.06172839506172839,0,0,0.06172839506172839,11.11111111111111,0)" xlink:href="#aV"/><use transform="matrix(0.06172839506172839,0,0,0.06172839506172839,23.45679012345679,0)" xlink:href="#aQ"/><use transform="matrix(0.06172839506172839,0,0,0.06172839506172839,35.80246913580247,0)" xlink:href="#aQ"/><use transform="matrix(0.06172839506172839,0,0,0.06172839506172839,48.148148148148145,0)" xlink:href="#aW"/></g><g id="e"><use transform="matrix(0.06172839506172839,0,0,0.06172839506172839,0,0)" xlink:href="#aL"/><use transform="matrix(0.06172839506172839,0,0,0.06172839506172839,11.11111111111111,0)" xlink:href="#aM"/><use transform="matrix(0.06172839506172839,0,0,0.06172839506172839,17.28395061728395,0)" xlink:href="#aN"/><use transform="matrix(0.06172839506172839,0,0,0.06172839506172839,29.629629629629626,0)" xlink:href="#aO"/><use transform="matrix(0.06172839506172839,0,0,0.06172839506172839,36.9753086419753,0)" xlink:href="#aM"/></g><path fill="#333" d="M206 0h-36l-40-164L89 0H53L-1-190h32L70-26l43-164h34l41 164 42-164h31" id="aX"/><path fill="#333" d="M100-194c62-1 85 37 85 99 1 63-27 99-86 99S16-35 15-95c0-66 28-99 85-99zM99-20c44 1 53-31 53-75 0-43-8-75-51-75s-53 32-53 75 10 74 51 75" id="aY"/><path fill="#333" d="M143 0L79-87 56-68V0H24v-261h32v163l83-92h37l-77 82L181 0h-38" id="aZ"/><g id="f"><use transform="matrix(0.06172839506172839,0,0,0.06172839506172839,0,0)" xlink:href="#aX"/><use transform="matrix(0.06172839506172839,0,0,0.06172839506172839,15.987654320987653,0)" xlink:href="#aY"/><use transform="matrix(0.06172839506172839,0,0,0.06172839506172839,28.333333333333332,0)" xlink:href="#aO"/><use transform="matrix(0.06172839506172839,0,0,0.06172839506172839,35.67901234567901,0)" xlink:href="#aZ"/><use transform="matrix(0.06172839506172839,0,0,0.06172839506172839,46.79012345679013,0)" xlink:href="#aQ"/><use transform="matrix(0.06172839506172839,0,0,0.06172839506172839,59.135802469135804,0)" xlink:href="#aO"/></g><path fill="#333" d="M101-251c82-7 93 87 43 132L82-64C71-53 59-42 53-27h129V0H18c2-99 128-94 128-182 0-28-16-43-45-43s-46 15-49 41l-32-3c6-41 34-60 81-64" id="ba"/><use transform="matrix(0.06172839506172839,0,0,0.06172839506172839,0,0)" xlink:href="#ba" id="g"/><g id="h"><use transform="matrix(0.06172839506172839,0,0,0.06172839506172839,0,0)" xlink:href="#aX"/><use transform="matrix(0.06172839506172839,0,0,0.06172839506172839,15.987654320987653,0)" xlink:href="#aY"/><use transform="matrix(0.06172839506172839,0,0,0.06172839506172839,28.333333333333332,0)" xlink:href="#aO"/><use transform="matrix(0.06172839506172839,0,0,0.06172839506172839,35.67901234567901,0)" xlink:href="#aZ"/><use transform="matrix(0.06172839506172839,0,0,0.06172839506172839,46.79012345679013,0)" xlink:href="#aQ"/><use transform="matrix(0.06172839506172839,0,0,0.06172839506172839,59.135802469135804,0)" xlink:href="#aO"/><use transform="matrix(0.06172839506172839,0,0,0.06172839506172839,66.48148148148148,0)" xlink:href="#aL"/></g><path fill="#333" d="M108 0H70L1-190h34L89-25l56-165h34" id="bb"/><g id="i"><use transform="matrix(0.06172839506172839,0,0,0.06172839506172839,0,0)" xlink:href="#bb"/><use transform="matrix(0.06172839506172839,0,0,0.06172839506172839,11.11111111111111,0)" xlink:href="#aT"/><use transform="matrix(0.06172839506172839,0,0,0.06172839506172839,15.987654320987653,0)" xlink:href="#aL"/><use transform="matrix(0.06172839506172839,0,0,0.06172839506172839,27.098765432098766,0)" xlink:href="#aM"/><use transform="matrix(0.06172839506172839,0,0,0.06172839506172839,33.27160493827161,0)" xlink:href="#aY"/><use transform="matrix(0.06172839506172839,0,0,0.06172839506172839,45.617283950617285,0)" xlink:href="#aO"/></g><path fill="#333" d="M177-190C167-65 218 103 67 71c-23-6-38-20-44-43l32-5c15 47 100 32 89-28v-30C133-14 115 1 83 1 29 1 15-40 15-95c0-56 16-97 71-98 29-1 48 16 59 35 1-10 0-23 2-32h30zM94-22c36 0 50-32 50-73 0-42-14-75-50-75-39 0-46 34-46 75s6 73 46 73" id="bc"/><path fill="#333" d="M101-234c-31-9-42 10-38 44h38v23H63V0H32v-167H5v-23h27c-7-52 17-82 69-68v24" id="bd"/><g id="j"><use transform="matrix(0.06172839506172839,0,0,0.06172839506172839,0,0)" xlink:href="#bc"/><use transform="matrix(0.06172839506172839,0,0,0.06172839506172839,12.345679012345679,0)" xlink:href="#aT"/><use transform="matrix(0.06172839506172839,0,0,0.06172839506172839,17.22222222222222,0)" xlink:href="#aO"/><use transform="matrix(0.06172839506172839,0,0,0.06172839506172839,24.5679012345679,0)" xlink:href="#aN"/><use transform="matrix(0.06172839506172839,0,0,0.06172839506172839,36.913580246913575,0)" xlink:href="#bd"/><use transform="matrix(0.06172839506172839,0,0,0.06172839506172839,42.654320987654316,0)" xlink:href="#bd"/><use transform="matrix(0.06172839506172839,0,0,0.06172839506172839,48.82716049382716,0)" xlink:href="#aQ"/><use transform="matrix(0.06172839506172839,0,0,0.06172839506172839,61.172839506172835,0)" xlink:href="#aL"/></g><path fill="#333" d="M117-194c89-4 53 116 60 194h-32v-121c0-31-8-49-39-48C34-167 62-67 57 0H25l-1-190h30c1 10-1 24 2 32 11-22 29-35 61-36" id="be"/><g id="k"><use transform="matrix(0.06172839506172839,0,0,0.06172839506172839,0,0)" xlink:href="#aS"/><use transform="matrix(0.06172839506172839,0,0,0.06172839506172839,11.11111111111111,0)" xlink:href="#aY"/><use transform="matrix(0.06172839506172839,0,0,0.06172839506172839,23.45679012345679,0)" xlink:href="#be"/><use transform="matrix(0.06172839506172839,0,0,0.06172839506172839,35.80246913580247,0)" xlink:href="#aM"/><use transform="matrix(0.06172839506172839,0,0,0.06172839506172839,41.97530864197531,0)" xlink:href="#aN"/><use transform="matrix(0.06172839506172839,0,0,0.06172839506172839,54.32098765432099,0)" xlink:href="#aT"/><use transform="matrix(0.06172839506172839,0,0,0.06172839506172839,59.19753086419753,0)" xlink:href="#be"/><use transform="matrix(0.06172839506172839,0,0,0.06172839506172839,71.54320987654322,0)" xlink:href="#aL"/></g><g id="l"><use transform="matrix(0.06172839506172839,0,0,0.06172839506172839,0,0)" xlink:href="#aY"/><use transform="matrix(0.06172839506172839,0,0,0.06172839506172839,12.345679012345679,0)" xlink:href="#bb"/><use transform="matrix(0.06172839506172839,0,0,0.06172839506172839,23.45679012345679,0)" xlink:href="#aQ"/><use transform="matrix(0.06172839506172839,0,0,0.06172839506172839,35.80246913580247,0)" xlink:href="#aO"/></g><path fill="#333" d="M27 0v-27h64v-190l-56 39v-29l58-41h29v221h61V0H27" id="bf"/><use transform="matrix(0.06172839506172839,0,0,0.06172839506172839,0,0)" xlink:href="#bf" id="m"/><g id="n"><use transform="matrix(0.06172839506172839,0,0,0.06172839506172839,0,0)" xlink:href="#aQ"/><use transform="matrix(0.06172839506172839,0,0,0.06172839506172839,12.345679012345679,0)" xlink:href="#aR"/><use transform="matrix(0.06172839506172839,0,0,0.06172839506172839,17.22222222222222,0)" xlink:href="#aQ"/><use transform="matrix(0.06172839506172839,0,0,0.06172839506172839,29.5679012345679,0)" xlink:href="#bd"/><use transform="matrix(0.06172839506172839,0,0,0.06172839506172839,35.74074074074074,0)" xlink:href="#aN"/><use transform="matrix(0.06172839506172839,0,0,0.06172839506172839,48.08641975308642,0)" xlink:href="#be"/><use transform="matrix(0.06172839506172839,0,0,0.06172839506172839,60.432098765432094,0)" xlink:href="#aM"/><use transform="matrix(0.06172839506172839,0,0,0.06172839506172839,66.60493827160494,0)" xlink:href="#aL"/></g><g id="o"><use transform="matrix(0.06172839506172839,0,0,0.06172839506172839,0,0)" xlink:href="#aX"/><use transform="matrix(0.06172839506172839,0,0,0.06172839506172839,15.987654320987653,0)" xlink:href="#aY"/><use transform="matrix(0.06172839506172839,0,0,0.06172839506172839,28.333333333333332,0)" xlink:href="#aR"/><use transform="matrix(0.06172839506172839,0,0,0.06172839506172839,33.20987654320987,0)" xlink:href="#bd"/></g><g id="p"><use transform="matrix(0.06172839506172839,0,0,0.06172839506172839,0,0)" xlink:href="#aS"/><use transform="matrix(0.06172839506172839,0,0,0.06172839506172839,11.11111111111111,0)" xlink:href="#aY"/><use transform="matrix(0.06172839506172839,0,0,0.06172839506172839,23.45679012345679,0)" xlink:href="#be"/><use transform="matrix(0.06172839506172839,0,0,0.06172839506172839,35.80246913580247,0)" xlink:href="#aM"/><use transform="matrix(0.06172839506172839,0,0,0.06172839506172839,41.97530864197531,0)" xlink:href="#aN"/><use transform="matrix(0.06172839506172839,0,0,0.06172839506172839,54.32098765432099,0)" xlink:href="#aT"/><use transform="matrix(0.06172839506172839,0,0,0.06172839506172839,59.19753086419753,0)" xlink:href="#be"/><use transform="matrix(0.06172839506172839,0,0,0.06172839506172839,71.54320987654322,0)" xlink:href="#aL"/></g><g id="q"><use transform="matrix(0.06172839506172839,0,0,0.06172839506172839,0,0)" xlink:href="#aY"/><use transform="matrix(0.06172839506172839,0,0,0.06172839506172839,12.345679012345679,0)" xlink:href="#bb"/><use transform="matrix(0.06172839506172839,0,0,0.06172839506172839,23.45679012345679,0)" xlink:href="#aQ"/><use transform="matrix(0.06172839506172839,0,0,0.06172839506172839,35.80246913580247,0)" xlink:href="#aO"/></g><use transform="matrix(0.06172839506172839,0,0,0.06172839506172839,0,0)" xlink:href="#bf" id="r"/><path fill="#333" d="M106-169C34-169 62-67 57 0H25v-261h32l-1 103c12-21 28-36 61-36 89 0 53 116 60 194h-32v-121c2-32-8-49-39-48" id="bg"/><g id="s"><use transform="matrix(0.06172839506172839,0,0,0.06172839506172839,0,0)" xlink:href="#aX"/><use transform="matrix(0.06172839506172839,0,0,0.06172839506172839,15.987654320987653,0)" xlink:href="#aT"/><use transform="matrix(0.06172839506172839,0,0,0.06172839506172839,20.864197530864196,0)" xlink:href="#aM"/><use transform="matrix(0.06172839506172839,0,0,0.06172839506172839,27.037037037037035,0)" xlink:href="#bg"/></g><g id="t"><use transform="matrix(0.06172839506172839,0,0,0.06172839506172839,0,0)" xlink:href="#aR"/><use transform="matrix(0.06172839506172839,0,0,0.06172839506172839,4.876543209876543,0)" xlink:href="#aT"/><use transform="matrix(0.06172839506172839,0,0,0.06172839506172839,9.753086419753085,0)" xlink:href="#bd"/><use transform="matrix(0.06172839506172839,0,0,0.06172839506172839,15.925925925925926,0)" xlink:href="#aQ"/></g><g id="u"><use transform="matrix(0.06172839506172839,0,0,0.06172839506172839,0,0)" xlink:href="#aM"/><use transform="matrix(0.06172839506172839,0,0,0.06172839506172839,6.172839506172839,0)" xlink:href="#aT"/><use transform="matrix(0.06172839506172839,0,0,0.06172839506172839,11.049382716049383,0)" xlink:href="#aU"/><use transform="matrix(0.06172839506172839,0,0,0.06172839506172839,29.50617283950617,0)" xlink:href="#aQ"/></g><g id="v"><use transform="matrix(0.06172839506172839,0,0,0.06172839506172839,0,0)" xlink:href="#bf"/><use transform="matrix(0.06172839506172839,0,0,0.06172839506172839,12.345679012345679,0)" xlink:href="#ba"/></g><g id="w"><use transform="matrix(0.06172839506172839,0,0,0.06172839506172839,0,0)" xlink:href="#aU"/><use transform="matrix(0.06172839506172839,0,0,0.06172839506172839,18.456790123456788,0)" xlink:href="#aT"/><use transform="matrix(0.06172839506172839,0,0,0.06172839506172839,23.33333333333333,0)" xlink:href="#be"/></g><path fill="#333" d="M141 0L90-78 38 0H4l68-98-65-92h35l48 74 47-74h35l-64 92 68 98h-35" id="bh"/><g id="x"><use transform="matrix(0.06172839506172839,0,0,0.06172839506172839,0,0)" xlink:href="#bd"/><use transform="matrix(0.06172839506172839,0,0,0.06172839506172839,6.172839506172839,0)" xlink:href="#aY"/><use transform="matrix(0.06172839506172839,0,0,0.06172839506172839,18.51851851851852,0)" xlink:href="#bh"/><use transform="matrix(0.06172839506172839,0,0,0.06172839506172839,29.62962962962963,0)" xlink:href="#aL"/></g><path fill="#333" d="M115-194c53 0 69 39 70 98 0 66-23 100-70 100C84 3 66-7 56-30L54 0H23l1-261h32v101c10-23 28-34 59-34zm-8 174c40 0 45-34 45-75 0-40-5-75-45-74-42 0-51 32-51 76 0 43 10 73 51 73" id="bi"/><g id="y"><use transform="matrix(0.06172839506172839,0,0,0.06172839506172839,0,0)" xlink:href="#aO"/><use transform="matrix(0.06172839506172839,0,0,0.06172839506172839,7.345679012345679,0)" xlink:href="#aN"/><use transform="matrix(0.06172839506172839,0,0,0.06172839506172839,19.691358024691358,0)" xlink:href="#bi"/><use transform="matrix(0.06172839506172839,0,0,0.06172839506172839,32.03703703703704,0)" xlink:href="#bi"/><use transform="matrix(0.06172839506172839,0,0,0.06172839506172839,44.382716049382715,0)" xlink:href="#aT"/><use transform="matrix(0.06172839506172839,0,0,0.06172839506172839,49.25925925925926,0)" xlink:href="#aM"/><use transform="matrix(0.06172839506172839,0,0,0.06172839506172839,55.4320987654321,0)" xlink:href="#aL"/></g><path fill="#333" d="M99-251c64 0 84 50 84 122C183-37 130 33 47-8c-14-7-20-23-25-40l30-5c6 39 69 39 84 7 9-19 16-44 16-74-10 22-31 35-62 35-49 0-73-33-73-83 0-54 28-83 82-83zm-1 141c31-1 51-18 51-49 0-36-14-67-51-67-34 0-49 23-49 58 0 34 15 58 49 58" id="bj"/><path fill="#333" d="M54-142c48-35 137-8 131 61C196 18 31 33 14-55l32-4c7 23 22 37 52 37 35-1 51-22 54-58 4-55-73-65-99-34H22l8-134h141v27H59" id="bk"/><g id="z"><use transform="matrix(0.06172839506172839,0,0,0.06172839506172839,0,0)" xlink:href="#bj"/><use transform="matrix(0.06172839506172839,0,0,0.06172839506172839,12.345679012345679,0)" xlink:href="#bk"/></g><path fill="#333" d="M240 0l2-218c-23 76-54 145-80 218h-23L58-218 59 0H30v-248h44l77 211c21-75 51-140 76-211h43V0h-30" id="bl"/><g id="A"><use transform="matrix(0.06172839506172839,0,0,0.06172839506172839,0,0)" xlink:href="#bl"/><use transform="matrix(0.06172839506172839,0,0,0.06172839506172839,18.456790123456788,0)" xlink:href="#aQ"/><use transform="matrix(0.06172839506172839,0,0,0.06172839506172839,30.80246913580247,0)" xlink:href="#aO"/><use transform="matrix(0.06172839506172839,0,0,0.06172839506172839,38.148148148148145,0)" xlink:href="#bc"/><use transform="matrix(0.06172839506172839,0,0,0.06172839506172839,50.49382716049382,0)" xlink:href="#aQ"/></g><g id="B"><use transform="matrix(0.06172839506172839,0,0,0.06172839506172839,0,0)" xlink:href="#aT"/><use transform="matrix(0.06172839506172839,0,0,0.06172839506172839,4.876543209876543,0)" xlink:href="#bd"/></g><g id="C"><use transform="matrix(0.06172839506172839,0,0,0.06172839506172839,0,0)" xlink:href="#aZ"/><use transform="matrix(0.06172839506172839,0,0,0.06172839506172839,11.11111111111111,0)" xlink:href="#aQ"/><use transform="matrix(0.06172839506172839,0,0,0.06172839506172839,23.45679012345679,0)" xlink:href="#aQ"/><use transform="matrix(0.06172839506172839,0,0,0.06172839506172839,35.80246913580247,0)" xlink:href="#aV"/></g><g id="D"><use transform="matrix(0.06172839506172839,0,0,0.06172839506172839,0,0)" xlink:href="#bc"/><use transform="matrix(0.06172839506172839,0,0,0.06172839506172839,12.345679012345679,0)" xlink:href="#aY"/><use transform="matrix(0.06172839506172839,0,0,0.06172839506172839,24.691358024691358,0)" xlink:href="#aT"/><use transform="matrix(0.06172839506172839,0,0,0.06172839506172839,29.5679012345679,0)" xlink:href="#be"/><use transform="matrix(0.06172839506172839,0,0,0.06172839506172839,41.913580246913575,0)" xlink:href="#bc"/></g><path fill="#333" d="M146-102V0H94v-102L6-248h54l60 105 60-105h54" id="bm"/><path fill="#333" d="M185-48c-13 30-37 53-82 52C43 2 14-33 14-96s30-98 90-98c62 0 83 45 84 108H66c0 31 8 55 39 56 18 0 30-7 34-22zm-45-69c5-46-57-63-70-21-2 6-4 13-4 21h74" id="bn"/><path fill="#333" d="M137-138c1-29-70-34-71-4 15 46 118 7 119 86 1 83-164 76-172 9l43-7c4 19 20 25 44 25 33 8 57-30 24-41C81-84 22-81 20-136c-2-80 154-74 161-7" id="bo"/><g id="E"><use transform="matrix(0.04938271604938272,0,0,0.04938271604938272,0,0)" xlink:href="#bm"/><use transform="matrix(0.04938271604938272,0,0,0.04938271604938272,10.864197530864198,0)" xlink:href="#bn"/><use transform="matrix(0.04938271604938272,0,0,0.04938271604938272,20.74074074074074,0)" xlink:href="#bo"/></g><path fill="#333" d="M30-248c118-7 216 8 213 122C240-48 200 0 122 0H30v-248zM63-27c89 8 146-16 146-99s-60-101-146-95v194" id="bp"/><path fill="#333" d="M179-190L93 31C79 59 56 82 12 73V49c39 6 53-20 64-50L1-190h34L92-34l54-156h33" id="bq"/><g id="F"><use transform="matrix(0.06172839506172839,0,0,0.06172839506172839,0,0)" xlink:href="#bp"/><use transform="matrix(0.06172839506172839,0,0,0.06172839506172839,15.987654320987653,0)" xlink:href="#aQ"/><use transform="matrix(0.06172839506172839,0,0,0.06172839506172839,28.333333333333332,0)" xlink:href="#aR"/><use transform="matrix(0.06172839506172839,0,0,0.06172839506172839,33.20987654320987,0)" xlink:href="#aN"/><use transform="matrix(0.06172839506172839,0,0,0.06172839506172839,45.55555555555555,0)" xlink:href="#bq"/></g><path fill="#333" d="M155-56V0h-30v-56H8v-25l114-167h33v167h35v25h-35zm-30-156c-27 46-58 90-88 131h88v-131" id="br"/><g id="G"><use transform="matrix(0.06172839506172839,0,0,0.06172839506172839,0,0)" xlink:href="#br"/><use transform="matrix(0.06172839506172839,0,0,0.06172839506172839,12.345679012345679,0)" xlink:href="#aU"/><use transform="matrix(0.06172839506172839,0,0,0.06172839506172839,30.80246913580247,0)" xlink:href="#aT"/><use transform="matrix(0.06172839506172839,0,0,0.06172839506172839,35.67901234567901,0)" xlink:href="#be"/></g><path fill="#333" d="M0 4l72-265h28L28 4H0" id="bs"/><use transform="matrix(0.06172839506172839,0,0,0.06172839506172839,0,0)" xlink:href="#bs" id="H"/><path fill="#333" d="M110-160c48 1 74 30 74 79 0 53-28 85-80 85-65 0-83-55-86-122-5-90 50-162 133-122 14 7 22 21 27 39l-31 6c-5-40-67-38-82-6-9 19-15 44-15 74 11-20 30-34 60-33zm-7 138c34 0 49-23 49-58s-16-56-50-56c-29 0-50 16-49 49 1 36 15 65 50 65" id="bt"/><g id="I"><use transform="matrix(0.06172839506172839,0,0,0.06172839506172839,0,0)" xlink:href="#bt"/><use transform="matrix(0.06172839506172839,0,0,0.06172839506172839,12.345679012345679,0)" xlink:href="#aU"/><use transform="matrix(0.06172839506172839,0,0,0.06172839506172839,30.80246913580247,0)" xlink:href="#aT"/><use transform="matrix(0.06172839506172839,0,0,0.06172839506172839,35.67901234567901,0)" xlink:href="#be"/></g><g id="J"><use transform="matrix(0.06172839506172839,0,0,0.06172839506172839,0,0)" xlink:href="#ba"/><use transform="matrix(0.06172839506172839,0,0,0.06172839506172839,12.345679012345679,0)" xlink:href="#aU"/><use transform="matrix(0.06172839506172839,0,0,0.06172839506172839,30.80246913580247,0)" xlink:href="#aT"/><use transform="matrix(0.06172839506172839,0,0,0.06172839506172839,35.67901234567901,0)" xlink:href="#be"/></g><path fill="#333" d="M101-251c68 0 85 55 85 127S166 4 100 4C33 4 14-52 14-124c0-73 17-127 87-127zm-1 229c47 0 54-49 54-102s-4-102-53-102c-51 0-55 48-55 102 0 53 5 102 54 102" id="bu"/><g id="K"><use transform="matrix(0.06172839506172839,0,0,0.06172839506172839,0,0)" xlink:href="#bf"/><use transform="matrix(0.06172839506172839,0,0,0.06172839506172839,12.345679012345679,0)" xlink:href="#bu"/></g><g id="L"><use transform="matrix(0.06172839506172839,0,0,0.06172839506172839,0,0)" xlink:href="#aU"/><use transform="matrix(0.06172839506172839,0,0,0.06172839506172839,18.456790123456788,0)" xlink:href="#aT"/><use transform="matrix(0.06172839506172839,0,0,0.06172839506172839,23.33333333333333,0)" xlink:href="#be"/></g><path fill="#333" d="M175 0L67-191c6 58 2 128 3 191H24v-248h59L193-55c-6-58-2-129-3-193h46V0h-61" id="bv"/><path fill="#333" d="M110-194c64 0 96 36 96 99 0 64-35 99-97 99-61 0-95-36-95-99 0-62 34-99 96-99zm-1 164c35 0 45-28 45-65 0-40-10-65-43-65-34 0-45 26-45 65 0 36 10 65 43 65" id="bw"/><g id="M"><use transform="matrix(0.04938271604938272,0,0,0.04938271604938272,0,0)" xlink:href="#bv"/><use transform="matrix(0.04938271604938272,0,0,0.04938271604938272,12.790123456790125,0)" xlink:href="#bw"/></g><g id="N"><use transform="matrix(0.06172839506172839,0,0,0.06172839506172839,0,0)" xlink:href="#aO"/><use transform="matrix(0.06172839506172839,0,0,0.06172839506172839,7.345679012345679,0)" xlink:href="#aQ"/><use transform="matrix(0.06172839506172839,0,0,0.06172839506172839,19.691358024691358,0)" xlink:href="#aU"/><use transform="matrix(0.06172839506172839,0,0,0.06172839506172839,38.148148148148145,0)" xlink:href="#aY"/><use transform="matrix(0.06172839506172839,0,0,0.06172839506172839,50.49382716049382,0)" xlink:href="#bb"/><use transform="matrix(0.06172839506172839,0,0,0.06172839506172839,61.60493827160494,0)" xlink:href="#aQ"/></g><g id="O"><use transform="matrix(0.06172839506172839,0,0,0.06172839506172839,0,0)" xlink:href="#aN"/><use transform="matrix(0.06172839506172839,0,0,0.06172839506172839,12.345679012345679,0)" xlink:href="#aR"/><use transform="matrix(0.06172839506172839,0,0,0.06172839506172839,17.22222222222222,0)" xlink:href="#aR"/></g><g id="P"><use transform="matrix(0.06172839506172839,0,0,0.06172839506172839,0,0)" xlink:href="#aV"/><use transform="matrix(0.06172839506172839,0,0,0.06172839506172839,12.345679012345679,0)" xlink:href="#aY"/><use transform="matrix(0.06172839506172839,0,0,0.06172839506172839,24.691358024691358,0)" xlink:href="#aY"/><use transform="matrix(0.06172839506172839,0,0,0.06172839506172839,37.03703703703704,0)" xlink:href="#aV"/><use transform="matrix(0.06172839506172839,0,0,0.06172839506172839,49.382716049382715,0)" xlink:href="#aL"/></g><g id="Q"><use transform="matrix(0.06172839506172839,0,0,0.06172839506172839,0,0)" xlink:href="#bd"/><use transform="matrix(0.06172839506172839,0,0,0.06172839506172839,6.172839506172839,0)" xlink:href="#aO"/><use transform="matrix(0.06172839506172839,0,0,0.06172839506172839,13.518518518518519,0)" xlink:href="#aY"/><use transform="matrix(0.06172839506172839,0,0,0.06172839506172839,25.864197530864196,0)" xlink:href="#aU"/></g><g id="R"><use transform="matrix(0.06172839506172839,0,0,0.06172839506172839,0,0)" xlink:href="#aM"/><use transform="matrix(0.06172839506172839,0,0,0.06172839506172839,6.172839506172839,0)" xlink:href="#bg"/><use transform="matrix(0.06172839506172839,0,0,0.06172839506172839,18.51851851851852,0)" xlink:href="#aQ"/></g><g id="S"><use transform="matrix(0.06172839506172839,0,0,0.06172839506172839,0,0)" xlink:href="#aO"/><use transform="matrix(0.06172839506172839,0,0,0.06172839506172839,7.345679012345679,0)" xlink:href="#aN"/><use transform="matrix(0.06172839506172839,0,0,0.06172839506172839,19.691358024691358,0)" xlink:href="#bi"/><use transform="matrix(0.06172839506172839,0,0,0.06172839506172839,32.03703703703704,0)" xlink:href="#bi"/><use transform="matrix(0.06172839506172839,0,0,0.06172839506172839,44.382716049382715,0)" xlink:href="#aT"/><use transform="matrix(0.06172839506172839,0,0,0.06172839506172839,49.25925925925926,0)" xlink:href="#aM"/><use transform="matrix(0.06172839506172839,0,0,0.06172839506172839,55.4320987654321,0)" xlink:href="#aL"/></g><g id="T"><use transform="matrix(0.06172839506172839,0,0,0.06172839506172839,0,0)" xlink:href="#aO"/><use transform="matrix(0.06172839506172839,0,0,0.06172839506172839,7.345679012345679,0)" xlink:href="#aQ"/><use transform="matrix(0.06172839506172839,0,0,0.06172839506172839,19.691358024691358,0)" xlink:href="#aU"/><use transform="matrix(0.06172839506172839,0,0,0.06172839506172839,38.148148148148145,0)" xlink:href="#aY"/><use transform="matrix(0.06172839506172839,0,0,0.06172839506172839,50.49382716049382,0)" xlink:href="#bb"/><use transform="matrix(0.06172839506172839,0,0,0.06172839506172839,61.60493827160494,0)" xlink:href="#aQ"/></g><g id="U"><use transform="matrix(0.06172839506172839,0,0,0.06172839506172839,0,0)" xlink:href="#aY"/><use transform="matrix(0.06172839506172839,0,0,0.06172839506172839,12.345679012345679,0)" xlink:href="#aR"/><use transform="matrix(0.06172839506172839,0,0,0.06172839506172839,17.22222222222222,0)" xlink:href="#aW"/><use transform="matrix(0.06172839506172839,0,0,0.06172839506172839,29.5679012345679,0)" xlink:href="#aQ"/><use transform="matrix(0.06172839506172839,0,0,0.06172839506172839,41.913580246913575,0)" xlink:href="#aL"/><use transform="matrix(0.06172839506172839,0,0,0.06172839506172839,53.02469135802468,0)" xlink:href="#aM"/></g><g id="V"><use transform="matrix(0.06172839506172839,0,0,0.06172839506172839,0,0)" xlink:href="#aV"/><use transform="matrix(0.06172839506172839,0,0,0.06172839506172839,12.345679012345679,0)" xlink:href="#aY"/><use transform="matrix(0.06172839506172839,0,0,0.06172839506172839,24.691358024691358,0)" xlink:href="#aY"/><use transform="matrix(0.06172839506172839,0,0,0.06172839506172839,37.03703703703704,0)" xlink:href="#aV"/></g><g id="W"><use transform="matrix(0.06172839506172839,0,0,0.06172839506172839,0,0)" xlink:href="#bd"/><use transform="matrix(0.06172839506172839,0,0,0.06172839506172839,6.172839506172839,0)" xlink:href="#aO"/><use transform="matrix(0.06172839506172839,0,0,0.06172839506172839,13.518518518518519,0)" xlink:href="#aY"/><use transform="matrix(0.06172839506172839,0,0,0.06172839506172839,25.864197530864196,0)" xlink:href="#aU"/></g><g id="X"><use transform="matrix(0.06172839506172839,0,0,0.06172839506172839,0,0)" xlink:href="#bd"/><use transform="matrix(0.06172839506172839,0,0,0.06172839506172839,6.172839506172839,0)" xlink:href="#aY"/><use transform="matrix(0.06172839506172839,0,0,0.06172839506172839,18.51851851851852,0)" xlink:href="#bh"/><use transform="matrix(0.06172839506172839,0,0,0.06172839506172839,29.62962962962963,0)" xlink:href="#aL"/></g><g id="Y"><use transform="matrix(0.06172839506172839,0,0,0.06172839506172839,0,0)" xlink:href="#aX"/><use transform="matrix(0.06172839506172839,0,0,0.06172839506172839,15.987654320987653,0)" xlink:href="#aY"/><use transform="matrix(0.06172839506172839,0,0,0.06172839506172839,28.333333333333332,0)" xlink:href="#aR"/><use transform="matrix(0.06172839506172839,0,0,0.06172839506172839,33.20987654320987,0)" xlink:href="#bd"/></g><use transform="matrix(0.06172839506172839,0,0,0.06172839506172839,0,0)" xlink:href="#bf" id="Z"/><g id="aa"><use transform="matrix(0.06172839506172839,0,0,0.06172839506172839,0,0)" xlink:href="#aV"/><use transform="matrix(0.06172839506172839,0,0,0.06172839506172839,12.345679012345679,0)" xlink:href="#aY"/><use transform="matrix(0.06172839506172839,0,0,0.06172839506172839,24.691358024691358,0)" xlink:href="#aY"/><use transform="matrix(0.06172839506172839,0,0,0.06172839506172839,37.03703703703704,0)" xlink:href="#aV"/></g><g id="ab"><use transform="matrix(0.06172839506172839,0,0,0.06172839506172839,0,0)" xlink:href="#aQ"/><use transform="matrix(0.06172839506172839,0,0,0.06172839506172839,12.345679012345679,0)" xlink:href="#aR"/><use transform="matrix(0.06172839506172839,0,0,0.06172839506172839,17.22222222222222,0)" xlink:href="#aQ"/><use transform="matrix(0.06172839506172839,0,0,0.06172839506172839,29.5679012345679,0)" xlink:href="#bd"/><use transform="matrix(0.06172839506172839,0,0,0.06172839506172839,35.74074074074074,0)" xlink:href="#aN"/><use transform="matrix(0.06172839506172839,0,0,0.06172839506172839,48.08641975308642,0)" xlink:href="#be"/><use transform="matrix(0.06172839506172839,0,0,0.06172839506172839,60.432098765432094,0)" xlink:href="#aM"/><use transform="matrix(0.06172839506172839,0,0,0.06172839506172839,66.60493827160494,0)" xlink:href="#aL"/></g><g id="ac"><use transform="matrix(0.06172839506172839,0,0,0.06172839506172839,0,0)" xlink:href="#bc"/><use transform="matrix(0.06172839506172839,0,0,0.06172839506172839,12.345679012345679,0)" xlink:href="#aT"/><use transform="matrix(0.06172839506172839,0,0,0.06172839506172839,17.22222222222222,0)" xlink:href="#aO"/><use transform="matrix(0.06172839506172839,0,0,0.06172839506172839,24.5679012345679,0)" xlink:href="#aN"/><use transform="matrix(0.06172839506172839,0,0,0.06172839506172839,36.913580246913575,0)" xlink:href="#bd"/><use transform="matrix(0.06172839506172839,0,0,0.06172839506172839,42.654320987654316,0)" xlink:href="#bd"/><use transform="matrix(0.06172839506172839,0,0,0.06172839506172839,48.82716049382716,0)" xlink:href="#aQ"/><use transform="matrix(0.06172839506172839,0,0,0.06172839506172839,61.172839506172835,0)" xlink:href="#aL"/></g><g id="ad"><use transform="matrix(0.06172839506172839,0,0,0.06172839506172839,0,0)" xlink:href="#aQ"/><use transform="matrix(0.06172839506172839,0,0,0.06172839506172839,12.345679012345679,0)" xlink:href="#be"/><use transform="matrix(0.06172839506172839,0,0,0.06172839506172839,24.691358024691358,0)" xlink:href="#aW"/></g><g id="ae"><use transform="matrix(0.06172839506172839,0,0,0.06172839506172839,0,0)" xlink:href="#bf"/><use transform="matrix(0.06172839506172839,0,0,0.06172839506172839,12.345679012345679,0)" xlink:href="#aU"/><use transform="matrix(0.06172839506172839,0,0,0.06172839506172839,30.80246913580247,0)" xlink:href="#aT"/><use transform="matrix(0.06172839506172839,0,0,0.06172839506172839,35.67901234567901,0)" xlink:href="#be"/></g><g id="af"><use transform="matrix(0.06172839506172839,0,0,0.06172839506172839,0,0)" xlink:href="#aP"/><use transform="matrix(0.06172839506172839,0,0,0.06172839506172839,14.814814814814813,0)" xlink:href="#aM"/><use transform="matrix(0.06172839506172839,0,0,0.06172839506172839,20.98765432098765,0)" xlink:href="#aN"/><use transform="matrix(0.06172839506172839,0,0,0.06172839506172839,33.33333333333333,0)" xlink:href="#aO"/><use transform="matrix(0.06172839506172839,0,0,0.06172839506172839,40.679012345679006,0)" xlink:href="#aM"/></g><g id="ag"><use transform="matrix(0.06172839506172839,0,0,0.06172839506172839,0,0)" xlink:href="#aN"/><use transform="matrix(0.06172839506172839,0,0,0.06172839506172839,12.345679012345679,0)" xlink:href="#aR"/><use transform="matrix(0.06172839506172839,0,0,0.06172839506172839,17.22222222222222,0)" xlink:href="#aR"/></g><g id="ah"><use transform="matrix(0.06172839506172839,0,0,0.06172839506172839,0,0)" xlink:href="#aM"/><use transform="matrix(0.06172839506172839,0,0,0.06172839506172839,6.172839506172839,0)" xlink:href="#bg"/><use transform="matrix(0.06172839506172839,0,0,0.06172839506172839,18.51851851851852,0)" xlink:href="#aQ"/></g><g id="ai"><use transform="matrix(0.06172839506172839,0,0,0.06172839506172839,0,0)" xlink:href="#aN"/><use transform="matrix(0.06172839506172839,0,0,0.06172839506172839,12.345679012345679,0)" xlink:href="#be"/><use transform="matrix(0.06172839506172839,0,0,0.06172839506172839,24.691358024691358,0)" xlink:href="#aT"/><use transform="matrix(0.06172839506172839,0,0,0.06172839506172839,29.5679012345679,0)" xlink:href="#aU"/><use transform="matrix(0.06172839506172839,0,0,0.06172839506172839,48.02469135802468,0)" xlink:href="#aN"/><use transform="matrix(0.06172839506172839,0,0,0.06172839506172839,60.37037037037036,0)" xlink:href="#aR"/></g><g id="aj"><use transform="matrix(0.06172839506172839,0,0,0.06172839506172839,0,0)" xlink:href="#aV"/><use transform="matrix(0.06172839506172839,0,0,0.06172839506172839,12.345679012345679,0)" xlink:href="#aQ"/><use transform="matrix(0.06172839506172839,0,0,0.06172839506172839,24.691358024691358,0)" xlink:href="#be"/><use transform="matrix(0.06172839506172839,0,0,0.06172839506172839,37.03703703703704,0)" xlink:href="#aL"/></g><g id="ak"><use transform="matrix(0.06172839506172839,0,0,0.06172839506172839,0,0)" xlink:href="#bf"/><use transform="matrix(0.06172839506172839,0,0,0.06172839506172839,12.345679012345679,0)" xlink:href="#bk"/></g><g id="al"><use transform="matrix(0.06172839506172839,0,0,0.06172839506172839,0,0)" xlink:href="#bf"/><use transform="matrix(0.06172839506172839,0,0,0.06172839506172839,12.345679012345679,0)" xlink:href="#bu"/><use transform="matrix(0.06172839506172839,0,0,0.06172839506172839,24.691358024691358,0)" xlink:href="#bu"/></g><path fill="#333" d="M123 10C108 53 80 86 19 72V37c35 8 53-11 59-39L3-190h52l48 148c12-52 28-100 44-148h51" id="bx"/><g id="am"><use transform="matrix(0.04938271604938272,0,0,0.04938271604938272,0,0)" xlink:href="#bx"/><use transform="matrix(0.04938271604938272,0,0,0.04938271604938272,9.876543209876544,0)" xlink:href="#bn"/><use transform="matrix(0.04938271604938272,0,0,0.04938271604938272,19.75308641975309,0)" xlink:href="#bo"/></g><g id="an"><use transform="matrix(0.06172839506172839,0,0,0.06172839506172839,0,0)" xlink:href="#bg"/><use transform="matrix(0.06172839506172839,0,0,0.06172839506172839,12.345679012345679,0)" xlink:href="#aN"/><use transform="matrix(0.06172839506172839,0,0,0.06172839506172839,24.691358024691358,0)" xlink:href="#bb"/><use transform="matrix(0.06172839506172839,0,0,0.06172839506172839,35.80246913580247,0)" xlink:href="#aQ"/></g><g id="ao"><use transform="matrix(0.06172839506172839,0,0,0.06172839506172839,0,0)" xlink:href="#aM"/><use transform="matrix(0.06172839506172839,0,0,0.06172839506172839,6.172839506172839,0)" xlink:href="#bg"/><use transform="matrix(0.06172839506172839,0,0,0.06172839506172839,18.51851851851852,0)" xlink:href="#aQ"/><use transform="matrix(0.06172839506172839,0,0,0.06172839506172839,30.864197530864196,0)" xlink:href="#aO"/><use transform="matrix(0.06172839506172839,0,0,0.06172839506172839,38.20987654320987,0)" xlink:href="#aQ"/></g><g id="ap"><use transform="matrix(0.06172839506172839,0,0,0.06172839506172839,0,0)" xlink:href="#bi"/><use transform="matrix(0.06172839506172839,0,0,0.06172839506172839,12.345679012345679,0)" xlink:href="#aQ"/><use transform="matrix(0.06172839506172839,0,0,0.06172839506172839,24.691358024691358,0)" xlink:href="#aQ"/><use transform="matrix(0.06172839506172839,0,0,0.06172839506172839,37.03703703703704,0)" xlink:href="#be"/></g><g id="aq"><use transform="matrix(0.06172839506172839,0,0,0.06172839506172839,0,0)" xlink:href="#aO"/><use transform="matrix(0.06172839506172839,0,0,0.06172839506172839,7.345679012345679,0)" xlink:href="#aQ"/><use transform="matrix(0.06172839506172839,0,0,0.06172839506172839,19.691358024691358,0)" xlink:href="#aU"/><use transform="matrix(0.06172839506172839,0,0,0.06172839506172839,38.148148148148145,0)" xlink:href="#aY"/><use transform="matrix(0.06172839506172839,0,0,0.06172839506172839,50.49382716049382,0)" xlink:href="#bb"/><use transform="matrix(0.06172839506172839,0,0,0.06172839506172839,61.60493827160494,0)" xlink:href="#aQ"/><use transform="matrix(0.06172839506172839,0,0,0.06172839506172839,73.95061728395062,0)" xlink:href="#aW"/></g><g id="ar"><use transform="matrix(0.06172839506172839,0,0,0.06172839506172839,0,0)" xlink:href="#aV"/><use transform="matrix(0.06172839506172839,0,0,0.06172839506172839,12.345679012345679,0)" xlink:href="#aY"/><use transform="matrix(0.06172839506172839,0,0,0.06172839506172839,24.691358024691358,0)" xlink:href="#aT"/><use transform="matrix(0.06172839506172839,0,0,0.06172839506172839,29.5679012345679,0)" xlink:href="#be"/><use transform="matrix(0.06172839506172839,0,0,0.06172839506172839,41.913580246913575,0)" xlink:href="#aM"/><use transform="matrix(0.06172839506172839,0,0,0.06172839506172839,48.08641975308642,0)" xlink:href="#aL"/></g><g id="as"><use transform="matrix(0.06172839506172839,0,0,0.06172839506172839,0,0)" xlink:href="#aN"/><use transform="matrix(0.06172839506172839,0,0,0.06172839506172839,12.345679012345679,0)" xlink:href="#aW"/><use transform="matrix(0.06172839506172839,0,0,0.06172839506172839,24.691358024691358,0)" xlink:href="#aW"/></g><path fill="#333" d="M33 0v-38h34V0H33" id="by"/><g id="at"><use transform="matrix(0.06172839506172839,0,0,0.06172839506172839,0,0)" xlink:href="#bu"/><use transform="matrix(0.06172839506172839,0,0,0.06172839506172839,12.345679012345679,0)" xlink:href="#by"/><use transform="matrix(0.06172839506172839,0,0,0.06172839506172839,18.51851851851852,0)" xlink:href="#bf"/></g><g id="au"><use transform="matrix(0.06172839506172839,0,0,0.06172839506172839,0,0)" xlink:href="#aO"/><use transform="matrix(0.06172839506172839,0,0,0.06172839506172839,7.345679012345679,0)" xlink:href="#aQ"/><use transform="matrix(0.06172839506172839,0,0,0.06172839506172839,19.691358024691358,0)" xlink:href="#aU"/><use transform="matrix(0.06172839506172839,0,0,0.06172839506172839,38.148148148148145,0)" xlink:href="#aY"/><use transform="matrix(0.06172839506172839,0,0,0.06172839506172839,50.49382716049382,0)" xlink:href="#bb"/><use transform="matrix(0.06172839506172839,0,0,0.06172839506172839,61.60493827160494,0)" xlink:href="#aQ"/><use transform="matrix(0.06172839506172839,0,0,0.06172839506172839,73.95061728395062,0)" xlink:href="#aL"/></g><g id="av"><use transform="matrix(0.06172839506172839,0,0,0.06172839506172839,0,0)" xlink:href="#bf"/><use transform="matrix(0.06172839506172839,0,0,0.06172839506172839,12.345679012345679,0)" xlink:href="#bk"/><use transform="matrix(0.06172839506172839,0,0,0.06172839506172839,24.691358024691358,0)" xlink:href="#aL"/><use transform="matrix(0.06172839506172839,0,0,0.06172839506172839,35.80246913580247,0)" xlink:href="#aQ"/><use transform="matrix(0.06172839506172839,0,0,0.06172839506172839,48.148148148148145,0)" xlink:href="#aZ"/></g><g id="aw"><use transform="matrix(0.06172839506172839,0,0,0.06172839506172839,0,0)" xlink:href="#aV"/><use transform="matrix(0.06172839506172839,0,0,0.06172839506172839,12.345679012345679,0)" xlink:href="#aQ"/><use transform="matrix(0.06172839506172839,0,0,0.06172839506172839,24.691358024691358,0)" xlink:href="#be"/></g><g id="ax"><use transform="matrix(0.06172839506172839,0,0,0.06172839506172839,0,0)" xlink:href="#aV"/><use transform="matrix(0.06172839506172839,0,0,0.06172839506172839,12.345679012345679,0)" xlink:href="#aY"/><use transform="matrix(0.06172839506172839,0,0,0.06172839506172839,24.691358024691358,0)" xlink:href="#aY"/><use transform="matrix(0.06172839506172839,0,0,0.06172839506172839,37.03703703703704,0)" xlink:href="#aV"/></g><g id="ay"><use transform="matrix(0.06172839506172839,0,0,0.06172839506172839,0,0)" xlink:href="#aZ"/><use transform="matrix(0.06172839506172839,0,0,0.06172839506172839,11.11111111111111,0)" xlink:href="#aQ"/><use transform="matrix(0.06172839506172839,0,0,0.06172839506172839,23.45679012345679,0)" xlink:href="#aQ"/><use transform="matrix(0.06172839506172839,0,0,0.06172839506172839,35.80246913580247,0)" xlink:href="#aV"/></g><path fill="#333" d="M84 4C-5 8 30-112 23-190h32v120c0 31 7 50 39 49 72-2 45-101 50-169h31l1 190h-30c-1-10 1-25-2-33-11 22-28 36-60 37" id="bz"/><g id="az"><use transform="matrix(0.06172839506172839,0,0,0.06172839506172839,0,0)" xlink:href="#aS"/><use transform="matrix(0.06172839506172839,0,0,0.06172839506172839,11.11111111111111,0)" xlink:href="#aN"/><use transform="matrix(0.06172839506172839,0,0,0.06172839506172839,23.45679012345679,0)" xlink:href="#aR"/><use transform="matrix(0.06172839506172839,0,0,0.06172839506172839,28.333333333333336,0)" xlink:href="#aS"/><use transform="matrix(0.06172839506172839,0,0,0.06172839506172839,39.44444444444444,0)" xlink:href="#bz"/><use transform="matrix(0.06172839506172839,0,0,0.06172839506172839,51.79012345679012,0)" xlink:href="#aR"/><use transform="matrix(0.06172839506172839,0,0,0.06172839506172839,56.666666666666664,0)" xlink:href="#aN"/><use transform="matrix(0.06172839506172839,0,0,0.06172839506172839,69.01234567901234,0)" xlink:href="#aM"/><use transform="matrix(0.06172839506172839,0,0,0.06172839506172839,75.18518518518518,0)" xlink:href="#aQ"/></g><g id="aA"><use transform="matrix(0.06172839506172839,0,0,0.06172839506172839,0,0)" xlink:href="#aW"/><use transform="matrix(0.06172839506172839,0,0,0.06172839506172839,12.345679012345679,0)" xlink:href="#aQ"/><use transform="matrix(0.06172839506172839,0,0,0.06172839506172839,24.691358024691358,0)" xlink:href="#aR"/><use transform="matrix(0.06172839506172839,0,0,0.06172839506172839,29.5679012345679,0)" xlink:href="#aN"/><use transform="matrix(0.06172839506172839,0,0,0.06172839506172839,41.913580246913575,0)" xlink:href="#bq"/></g><g id="aB"><use transform="matrix(0.06172839506172839,0,0,0.06172839506172839,0,0)" xlink:href="#aX"/><use transform="matrix(0.06172839506172839,0,0,0.06172839506172839,15.987654320987653,0)" xlink:href="#aT"/><use transform="matrix(0.06172839506172839,0,0,0.06172839506172839,20.864197530864196,0)" xlink:href="#aM"/><use transform="matrix(0.06172839506172839,0,0,0.06172839506172839,27.037037037037035,0)" xlink:href="#bg"/></g><g id="aC"><use transform="matrix(0.06172839506172839,0,0,0.06172839506172839,0,0)" xlink:href="#aO"/><use transform="matrix(0.06172839506172839,0,0,0.06172839506172839,7.345679012345679,0)" xlink:href="#aN"/><use transform="matrix(0.06172839506172839,0,0,0.06172839506172839,19.691358024691358,0)" xlink:href="#be"/><use transform="matrix(0.06172839506172839,0,0,0.06172839506172839,32.03703703703704,0)" xlink:href="#aW"/><use transform="matrix(0.06172839506172839,0,0,0.06172839506172839,44.382716049382715,0)" xlink:href="#aY"/><use transform="matrix(0.06172839506172839,0,0,0.06172839506172839,56.72839506172839,0)" xlink:href="#aU"/></g><g id="aD"><use transform="matrix(0.06172839506172839,0,0,0.06172839506172839,0,0)" xlink:href="#aM"/><use transform="matrix(0.06172839506172839,0,0,0.06172839506172839,6.172839506172839,0)" xlink:href="#bg"/><use transform="matrix(0.06172839506172839,0,0,0.06172839506172839,18.51851851851852,0)" xlink:href="#aQ"/></g><g id="aE"><use transform="matrix(0.06172839506172839,0,0,0.06172839506172839,0,0)" xlink:href="#aS"/><use transform="matrix(0.06172839506172839,0,0,0.06172839506172839,11.11111111111111,0)" xlink:href="#aN"/><use transform="matrix(0.06172839506172839,0,0,0.06172839506172839,23.45679012345679,0)" xlink:href="#aR"/><use transform="matrix(0.06172839506172839,0,0,0.06172839506172839,28.333333333333336,0)" xlink:href="#aS"/><use transform="matrix(0.06172839506172839,0,0,0.06172839506172839,39.44444444444444,0)" xlink:href="#bz"/><use transform="matrix(0.06172839506172839,0,0,0.06172839506172839,51.79012345679012,0)" xlink:href="#aR"/><use transform="matrix(0.06172839506172839,0,0,0.06172839506172839,56.666666666666664,0)" xlink:href="#aN"/><use transform="matrix(0.06172839506172839,0,0,0.06172839506172839,69.01234567901234,0)" xlink:href="#aM"/><use transform="matrix(0.06172839506172839,0,0,0.06172839506172839,75.18518518518518,0)" xlink:href="#aQ"/><use transform="matrix(0.06172839506172839,0,0,0.06172839506172839,87.53086419753086,0)" xlink:href="#aW"/></g><g id="aF"><use transform="matrix(0.06172839506172839,0,0,0.06172839506172839,0,0)" xlink:href="#aW"/><use transform="matrix(0.06172839506172839,0,0,0.06172839506172839,12.345679012345679,0)" xlink:href="#aQ"/><use transform="matrix(0.06172839506172839,0,0,0.06172839506172839,24.691358024691358,0)" xlink:href="#aR"/><use transform="matrix(0.06172839506172839,0,0,0.06172839506172839,29.5679012345679,0)" xlink:href="#aN"/><use transform="matrix(0.06172839506172839,0,0,0.06172839506172839,41.913580246913575,0)" xlink:href="#bq"/></g><g id="aG"><use transform="matrix(0.06172839506172839,0,0,0.06172839506172839,0,0)" xlink:href="#aL"/><use transform="matrix(0.06172839506172839,0,0,0.06172839506172839,11.11111111111111,0)" xlink:href="#aQ"/><use transform="matrix(0.06172839506172839,0,0,0.06172839506172839,23.45679012345679,0)" xlink:href="#aM"/></g><g id="aH"><use transform="matrix(0.06172839506172839,0,0,0.06172839506172839,0,0)" xlink:href="#bc"/><use transform="matrix(0.06172839506172839,0,0,0.06172839506172839,12.345679012345679,0)" xlink:href="#aY"/><use transform="matrix(0.06172839506172839,0,0,0.06172839506172839,24.691358024691358,0)" xlink:href="#aT"/><use transform="matrix(0.06172839506172839,0,0,0.06172839506172839,29.5679012345679,0)" xlink:href="#be"/><use transform="matrix(0.06172839506172839,0,0,0.06172839506172839,41.913580246913575,0)" xlink:href="#bc"/></g><g id="aI"><use transform="matrix(0.06172839506172839,0,0,0.06172839506172839,0,0)" xlink:href="#aM"/><use transform="matrix(0.06172839506172839,0,0,0.06172839506172839,6.172839506172839,0)" xlink:href="#aY"/></g><g id="aJ"><use transform="matrix(0.06172839506172839,0,0,0.06172839506172839,0,0)" xlink:href="#bd"/><use transform="matrix(0.06172839506172839,0,0,0.06172839506172839,6.172839506172839,0)" xlink:href="#aN"/><use transform="matrix(0.06172839506172839,0,0,0.06172839506172839,18.51851851851852,0)" xlink:href="#aR"/><use transform="matrix(0.06172839506172839,0,0,0.06172839506172839,23.395061728395063,0)" xlink:href="#aL"/><use transform="matrix(0.06172839506172839,0,0,0.06172839506172839,34.50617283950618,0)" xlink:href="#aQ"/></g><g id="aK"><use transform="matrix(0.06172839506172839,0,0,0.06172839506172839,0,0)" xlink:href="#aQ"/><use transform="matrix(0.06172839506172839,0,0,0.06172839506172839,12.345679012345679,0)" xlink:href="#be"/><use transform="matrix(0.06172839506172839,0,0,0.06172839506172839,24.691358024691358,0)" xlink:href="#aW"/></g></defs></g></svg>